<svg xmlns="http://www.w3.org/2000/svg" xmlns:xlink="http://www.w3.org/1999/xlink" viewBox="0 0 1065 832" width="1065" height="832" preserveAspectRatio="xMidYMid slice" style="width: 100%; height: 100%; transform: translate3d(0px, 0px, 0px); content-visibility: visible;"><defs><clipPath id="__lottie_element_1663"><rect width="1065" height="832" x="0" y="0"></rect></clipPath><clipPath id="__lottie_element_1692"><path d="M0,0 L1065,0 L1065,2148 L0,2148z"></path></clipPath><clipPath id="__lottie_element_1749"><path d="M0,0 L1065,0 L1065,2148 L0,2148z"></path></clipPath><clipPath id="__lottie_element_1793"><path d="M0,0 L1065,0 L1065,2148 L0,2148z"></path></clipPath><clipPath id="__lottie_element_1833"><path d="M0,0 L1065,0 L1065,2148 L0,2148z"></path></clipPath><clipPath id="__lottie_element_1843"><path d="M0,0 L1065,0 L1065,2148 L0,2148z"></path></clipPath><clipPath id="__lottie_element_1868"><path d="M0,0 L1065,0 L1065,2148 L0,2148z"></path></clipPath><clipPath id="__lottie_element_1899"><path d="M0,0 L1065,0 L1065,2148 L0,2148z"></path></clipPath><clipPath id="__lottie_element_1912"><path d="M0,0 L1065,0 L1065,2148 L0,2148z"></path></clipPath><clipPath id="__lottie_element_1928"><path d="M0,0 L1065,0 L1065,2148 L0,2148z"></path></clipPath><clipPath id="__lottie_element_1938"><path d="M0,0 L1065,0 L1065,2148 L0,2148z"></path></clipPath><clipPath id="__lottie_element_1948"><path d="M0,0 L1065,0 L1065,2148 L0,2148z"></path></clipPath><clipPath id="__lottie_element_1961"><path d="M0,0 L1065,0 L1065,2148 L0,2148z"></path></clipPath><clipPath id="__lottie_element_1971"><path d="M0,0 L1065,0 L1065,2148 L0,2148z"></path></clipPath></defs><g clip-path="url(#__lottie_element_1663)"><g transform="matrix(1,0,0,1,147.85101318359375,57.66400146484375)" opacity="1" style="display: block;"><g opacity="1" transform="matrix(1,0,0,1,0,0)"><path fill="rgb(236,225,239)" fill-opacity="1" d=" M722.6500244140625,712.7349853515625 C802.4500122070312,661.5349731445312 807.75,413.2349853515625 653.25,355.135009765625 C498.8500061035156,297.0350036621094 527.4500122070312,150.3350067138672 397.54998779296875,40.73500061035156 C279.1499938964844,-59.165000915527344 83.25,25.53499984741211 17.950000762939453,285.43499755859375 C-28.549999237060547,470.7349853515625 25.75,703.2349853515625 62.75,712.8350219726562 C423.04998779296875,712.7349853515625 722.6500244140625,712.7349853515625 722.6500244140625,712.7349853515625z"></path></g></g><g clip-path="url(#__lottie_element_1971)" transform="matrix(0.9996948838233948,0.024700887501239777,-0.024700887501239777,0.9996948838233948,29.723388671875,-450.2972412109375)" opacity="1" style="display: block;"><g transform="matrix(1,0,0,1,751.8699951171875,1009.4879760742188)" opacity="1" style="display: block;"><g opacity="1" transform="matrix(1,0,0,1,0,0)"><path fill="rgb(130,130,168)" fill-opacity="1" d=" M1.1299999952316284,187.91200256347656 C1.1299999952316284,187.91200256347656 80.43099975585938,148.81199645996094 94.03099822998047,128.41200256347656 C107.63099670410156,108.01200103759766 87.62999725341797,106.91200256347656 87.62999725341797,106.91200256347656 C87.62999725341797,106.91200256347656 123.03099822998047,72.51200103759766 118.03099822998047,58.012001037597656 C113.03099822998047,43.512001037597656 94.43099975585938,57.4119987487793 94.43099975585938,57.4119987487793 C94.43099975585938,57.4119987487793 117.43099975585938,6.211999893188477 106.73100280761719,1.1119999885559082 C86.73100280761719,-8.387999534606934 58.73099899291992,46.11199951171875 58.73099899291992,46.11199951171875 C58.73099899291992,46.11199951171875 64.73100280761719,22.41200065612793 51.03099822998047,23.211999893188477 C30.33099937438965,24.41200065612793 31.131000518798828,77.91200256347656 31.131000518798828,77.91200256347656 C31.131000518798828,77.91200256347656 28.83099937438965,57.4119987487793 16.33099937438965,64.01200103759766 C-6.169000148773193,76.01200103759766 1.1299999952316284,187.91200256347656 1.1299999952316284,187.91200256347656z"></path></g></g><g transform="matrix(1,0,0,1,751.6580200195312,1009.387939453125)" opacity="1" style="display: block;"><g opacity="1" transform="matrix(1,0,0,1,0,0)"><path fill="rgb(177,177,222)" fill-opacity="1" d=" M14.541999816894531,55.9119987487793 C28.142000198364258,51.8120002746582 31.242000579833984,66.81199645996094 31.242000579833984,66.81199645996094 C31.242000579833984,66.81199645996094 30.441999435424805,24.41200065612793 51.242000579833984,23.211999893188477 C65.04199981689453,22.41200065612793 58.94200134277344,46.11199951171875 58.94200134277344,46.11199951171875 C58.94200134277344,46.11199951171875 86.94200134277344,-8.387999534606934 106.94200134277344,1.1119999885559082 C106.94200134277344,1.1119999885559082 1.2419999837875366,187.11199951171875 1.2419999837875366,187.11199951171875 C0.5419999957084656,174.21200561523438 -4.958000183105469,61.8120002746582 14.541999816894531,55.9119987487793z"></path></g></g></g><g clip-path="url(#__lottie_element_1961)" transform="matrix(0.9996948838233948,-0.024700887501239777,0.024700887501239777,0.9996948838233948,-29.36114501953125,-412.972900390625)" opacity="1" style="display: block;"><g transform="matrix(1,0,0,1,755.0999755859375,1114.656005859375)" opacity="1" style="display: block;"><g opacity="1" transform="matrix(1,0,0,1,0,0)"><path fill="rgb(130,130,168)" fill-opacity="1" d=" M0,83.24400329589844 C0,83.24400329589844 64.80000305175781,91.34400177001953 81.5999984741211,84.14399719238281 C98.4000015258789,76.94400024414062 86.4000015258789,68.14399719238281 86.4000015258789,68.14399719238281 C86.4000015258789,68.14399719238281 122.4000015258789,61.04399871826172 125.19999694824219,50.04399871826172 C128,38.944000244140625 110.80000305175781,40.04399871826172 110.80000305175781,40.04399871826172 C110.80000305175781,40.04399871826172 145.89999389648438,17.444000244140625 141.3000030517578,9.944000244140625 C132.6999969482422,-4.056000232696533 93.0999984741211,18.54400062561035 93.0999984741211,18.54400062561035 C93.0999984741211,18.54400062561035 106.5,6.24399995803833 97.5999984741211,1.1440000534057617 C84.19999694824219,-6.556000232696533 63,27.143999099731445 63,27.143999099731445 C63,27.143999099731445 64.30000305175781,18.8439998626709 53.79999923706055,17.944000244140625 C34.900001525878906,16.143999099731445 0,83.24400329589844 0,83.24400329589844z"></path></g></g><g transform="matrix(1,0,0,1,754.7999877929688,1114.4559326171875)" opacity="1" style="display: block;"><g opacity="1" transform="matrix(1,0,0,1,0,0)"><path fill="rgb(62,61,81)" fill-opacity="1" d=" M53.099998474121094,15.744000434875488 C63.599998474121094,16.643999099731445 63.20000076293945,27.143999099731445 63.20000076293945,27.143999099731445 C63.20000076293945,27.143999099731445 84.4000015258789,-6.556000232696533 97.80000305175781,1.1440000534057617 C106.69999694824219,6.24399995803833 93.30000305175781,18.54400062561035 93.30000305175781,18.54400062561035 C93.30000305175781,18.54400062561035 132.89999389648438,-4.056000232696533 141.5,9.944000244140625 C141.5,9.944000244140625 0,82.94400024414062 0,82.94400024414062 C4.900000095367432,74.64399719238281 35.5,14.244000434875488 53.099998474121094,15.744000434875488z"></path></g></g></g><g transform="matrix(1,0,0,1,143.4000244140625,766.8999633789062)" opacity="1" style="display: block;"><g opacity="1" transform="matrix(1,0,0,1,0,0)"><path fill="rgb(62,61,81)" fill-opacity="1" d=" M779.5999755859375,2.700000047683716 C779.5999755859375,1.2000000476837158 778.7999877929688,0 777.7999877929688,0 C777.7999877929688,0 2.200000047683716,0 2.200000047683716,0 C1,0 0,1.2000000476837158 0,2.700000047683716 C0,4.199999809265137 1,5.400000095367432 2.200000047683716,5.400000095367432 C2.200000047683716,5.400000095367432 777.9000244140625,5.400000095367432 777.9000244140625,5.400000095367432 C778.7999877929688,5.400000095367432 779.5999755859375,4.199999809265137 779.5999755859375,2.700000047683716 C779.5999755859375,2.700000047683716 779.5999755859375,2.700000047683716 779.5999755859375,2.700000047683716z"></path></g></g><g clip-path="url(#__lottie_element_1948)" transform="matrix(0.9996948838233948,-0.024700887501239777,0.024700887501239777,0.9996948838233948,-29.36639404296875,-423.398193359375)" opacity="1" style="display: block;"><g transform="matrix(1,0,0,1,182.27198791503906,952.6480102539062)" opacity="1" style="display: block;"><g opacity="1" transform="matrix(1,0,0,1,0,0)"><path fill="rgb(130,130,168)" fill-opacity="1" d=" M152.92799377441406,244.95199584960938 C152.92799377441406,244.95199584960938 49.62799835205078,193.95199584960938 31.827999114990234,167.45199584960938 C14.027999877929688,140.8520050048828 40.22800064086914,139.3520050048828 40.22800064086914,139.3520050048828 C40.22800064086914,139.3520050048828 -5.872000217437744,94.4520034790039 0.628000020980835,75.6520004272461 C7.127999782562256,56.75199890136719 31.327999114990234,74.85199737548828 31.327999114990234,74.85199737548828 C31.327999114990234,74.85199737548828 1.3279999494552612,8.152000427246094 15.32800006866455,1.4520000219345093 C41.327999114990234,-10.947999954223633 77.9280014038086,60.152000427246094 77.9280014038086,60.152000427246094 C77.9280014038086,60.152000427246094 70.02799987792969,29.25200080871582 88.02799987792969,30.351999282836914 C115.02799987792969,31.851999282836914 113.9280014038086,101.6520004272461 113.9280014038086,101.6520004272461 C113.9280014038086,101.6520004272461 117.02799987792969,74.85199737548828 133.3280029296875,83.552001953125 C162.42799377441406,99.052001953125 152.92799377441406,244.95199584960938 152.92799377441406,244.95199584960938z"></path></g></g><g transform="matrix(1,0,0,1,197.39999389648438,952.5679931640625)" opacity="1" style="display: block;"><g opacity="1" transform="matrix(1,0,0,1,0,0)"><path fill="rgb(177,177,222)" fill-opacity="1" d=" M123.5,76.23200225830078 C109.19999694824219,67.83200073242188 98.4000015258789,87.63200378417969 98.4000015258789,87.63200378417969 C98.4000015258789,87.63200378417969 99.80000305175781,31.832000732421875 72.69999694824219,30.332000732421875 C54.79999923706055,29.332000732421875 62.599998474121094,60.13199996948242 62.599998474121094,60.13199996948242 C62.599998474121094,60.13199996948242 26.100000381469727,-10.868000030517578 0,1.4320000410079956 C0,1.4320000410079956 137.8000030517578,243.83200073242188 137.8000030517578,243.83200073242188 C138.8000030517578,226.9320068359375 142.5,87.43199920654297 123.5,76.23200225830078z"></path></g></g></g><g clip-path="url(#__lottie_element_1938)" transform="matrix(0.9996948838233948,0.024700887501239777,-0.024700887501239777,0.9996948838233948,29.642486572265625,-439.749267578125)" opacity="1" style="display: block;"><g transform="matrix(1,0,0,1,147.75799560546875,1089.51806640625)" opacity="1" style="display: block;"><g opacity="1" transform="matrix(1,0,0,1,0,0)"><path fill="rgb(130,130,168)" fill-opacity="1" d=" M184.74200439453125,108.68199920654297 C184.74200439453125,108.68199920654297 100.24199676513672,119.18099975585938 78.34200286865234,109.78099822998047 C56.44200134277344,100.38099670410156 72.14199829101562,88.88099670410156 72.14199829101562,88.88099670410156 C72.14199829101562,88.88099670410156 25.142000198364258,79.68099975585938 21.54199981689453,65.28099822998047 C17.941999435424805,50.88100051879883 40.34199905395508,52.28099822998047 40.34199905395508,52.28099822998047 C40.34199905395508,52.28099822998047 -5.458000183105469,22.881000518798828 0.5419999957084656,12.980999946594238 C11.741999626159668,-5.318999767303467 63.44200134277344,24.180999755859375 63.44200134277344,24.180999755859375 C63.44200134277344,24.180999755859375 46.04199981689453,8.081000328063965 57.641998291015625,1.4809999465942383 C75.14199829101562,-8.519000053405762 102.74199676513672,35.38100051879883 102.74199676513672,35.38100051879883 C102.74199676513672,35.38100051879883 101.04199981689453,24.58099937438965 114.74199676513672,23.381000518798828 C139.24200439453125,21.180999755859375 184.74200439453125,108.68199920654297 184.74200439453125,108.68199920654297z"></path></g></g><g transform="matrix(1,0,0,1,148.3000030517578,1088.343994140625)" opacity="1" style="display: block;"><g opacity="1" transform="matrix(1,0,0,1,0,0)"><path fill="rgb(62,61,81)" fill-opacity="1" d=" M114.0999984741211,17.256000518798828 C100.4000015258789,18.45599937438965 102.19999694824219,36.65599822998047 102.19999694824219,36.65599822998047 C102.19999694824219,36.65599822998047 77.69999694824219,-10.244000434875488 57,2.055999994277954 C45.5,8.855999946594238 61.400001525878906,24.856000900268555 61.400001525878906,24.856000900268555 C61.400001525878906,24.856000900268555 11.199999809265137,-3.944000005722046 0,14.355999946594238 C0,14.355999946594238 184.5,109.55599975585938 184.5,109.55599975585938 C178.1999969482422,98.45600128173828 137,15.255999565124512 114.0999984741211,17.256000518798828z"></path></g></g></g><g clip-path="url(#__lottie_element_1928)" transform="matrix(1,0,0,1,0,-432)" opacity="1" style="display: block;"><g transform="matrix(1,0,0,1,288.29998779296875,1048.7999267578125)" opacity="1" style="display: block;"><g opacity="1" transform="matrix(1,0,0,1,0,0)"><path fill="rgb(62,61,81)" fill-opacity="1" d=" M477.8999938964844,69.80000305175781 C477.8999938964844,69.80000305175781 30.899999618530273,69.80000305175781 30.899999618530273,69.80000305175781 C13.800000190734863,69.80000305175781 0,57.70000076293945 0,42.900001525878906 C0,42.900001525878906 0,26.899999618530273 0,26.899999618530273 C0,12 13.800000190734863,0 30.899999618530273,0 C30.899999618530273,0 477.8999938964844,0 477.8999938964844,0 C477.8999938964844,0 477.8999938964844,0 477.8999938964844,0 C457.5,19.5 457.1000061035156,49.20000076293945 477.1000061035156,69 C477.1000061035156,69 477.8999938964844,69.80000305175781 477.8999938964844,69.80000305175781z"></path></g></g><g transform="matrix(1,0,0,1,507,1056.7999267578125)" opacity="1" style="display: block;"><g opacity="1" transform="matrix(1,0,0,1,0,0)"><path fill="rgb(251,243,255)" fill-opacity="1" d=" M253,0 C253,0 28,0 28,0 C12.5,0 0,12.100000381469727 0,26.899999618530273 C0,26.899999618530273 0,26.899999618530273 0,26.899999618530273 C0,41.79999923706055 12.600000381469727,53.79999923706055 28,53.79999923706055 C28,53.79999923706055 252.89999389648438,53.79999923706055 252.89999389648438,53.79999923706055 C242.5,37.29999923706055 242.5,16.5 253,0z"></path></g></g></g><g clip-path="url(#__lottie_element_1912)" transform="matrix(1,0,0,1,0,-432)" opacity="1" style="display: block;"><g transform="matrix(1,0,0,1,238.30001831054688,1114.9000244140625)" opacity="1" style="display: block;"><g opacity="1" transform="matrix(1,0,0,1,0,0)"><path fill="rgb(255,118,133)" fill-opacity="1" d=" M594.7000122070312,0 C594.7000122070312,0 31.700000762939453,0 31.700000762939453,0 C14.199999809265137,0 0,13.300000190734863 0,29.799999237060547 C0,29.799999237060547 0,54.900001525878906 0,54.900001525878906 C0,71.4000015258789 14.199999809265137,84.69999694824219 31.700000762939453,84.69999694824219 C31.700000762939453,84.69999694824219 594.7999877929688,84.69999694824219 594.7999877929688,84.69999694824219 C594.7999877929688,84.69999694824219 594.5,84.4000015258789 594.5,84.4000015258789 C570.4000244140625,60.79999923706055 570.5,23.5 594.7000122070312,0z"></path></g></g><g transform="matrix(1,0,0,1,490.3999938964844,1127.5)" opacity="1" style="display: block;"><g opacity="1" transform="matrix(1,0,0,1,0,0)"><path fill="rgb(251,243,255)" fill-opacity="1" d=" M332.70001220703125,0 C332.70001220703125,0 31.700000762939453,0 31.700000762939453,0 C14.199999809265137,0 0,13.300000190734863 0,29.799999237060547 C0,29.799999237060547 0,29.799999237060547 0,29.799999237060547 C0,46.29999923706055 14.199999809265137,59.599998474121094 31.700000762939453,59.599998474121094 C31.700000762939453,59.599998474121094 332.70001220703125,59.599998474121094 332.70001220703125,59.599998474121094 C321.6000061035156,41.099998474121094 321.6000061035156,18.399999618530273 332.70001220703125,0z"></path></g></g><g transform="matrix(1,0,0,1,617.5999755859375,1157.4000244140625)" opacity="1" style="display: block;"><g opacity="1" transform="matrix(1,0,0,1,0,0)"><path fill="rgb(62,61,81)" fill-opacity="1" d=" M31.899999618530273,0 C31.899999618530273,0 8.899999618530273,0 8.899999618530273,0 C4,0 0,4 0,8.899999618530273 C0,8.899999618530273 0,9.699999809265137 0,9.699999809265137 C0,9.699999809265137 31.899999618530273,9.699999809265137 31.899999618530273,9.699999809265137 C31.899999618530273,9.699999809265137 31.899999618530273,0 31.899999618530273,0z"></path></g></g><g transform="matrix(1,0,0,1,627.5,1157.5)" opacity="1" style="display: block;"><g opacity="1" transform="matrix(1,0,0,1,0,0)"><path fill="rgb(130,130,168)" fill-opacity="1" d=" M0,0 C5.5,0 13.699999809265137,4.599999904632568 18.299999237060547,10.399999618530273 C18.299999237060547,10.399999618530273 72.80000305175781,78 72.80000305175781,78 C72.80000305175781,78 104.80000305175781,78 104.80000305175781,78 C104.80000305175781,78 53,13.699999809265137 53,13.699999809265137 C46.900001525878906,6.099999904632568 36.099998474121094,0 28.899999618530273,0 C28.899999618530273,0 0,0 0,0z"></path></g></g></g><g transform="matrix(1,0,0,1,247.26100158691406,232.66000366210938)" opacity="0.215249999999984" style="display: block;"><g opacity="1" transform="matrix(1,0,0,1,0,0)"><path fill="rgb(255,118,133)" fill-opacity="1" d=" M18.538999557495117,30.339000701904297 C18.339000701904297,30.839000701904297 17.93899917602539,31.139999389648438 17.538999557495117,31.239999771118164 C17.038999557495117,31.34000015258789 16.538999557495117,31.139999389648438 16.23900032043457,30.739999771118164 C16.23900032043457,30.739999771118164 10.83899974822998,22.93899917602539 10.83899974822998,22.93899917602539 C10.83899974822998,22.93899917602539 1.3389999866485596,22.93899917602539 1.3389999866485596,22.93899917602539 C0.8389999866485596,22.93899917602539 0.4390000104904175,22.639999389648438 0.13899999856948853,22.239999771118164 C-0.061000000685453415,21.84000015258789 -0.061000000685453415,21.23900032043457 0.23899999260902405,20.839000701904297 C0.23899999260902405,20.839000701904297 5.939000129699707,13.33899974822998 5.939000129699707,13.33899974822998 C5.939000129699707,13.33899974822998 3.0390000343322754,4.339000225067139 3.0390000343322754,4.339000225067139 C2.8389999866485596,3.8389999866485596 3.0390000343322754,3.3389999866485596 3.3389999866485596,3.0390000343322754 C3.739000082015991,2.739000082015991 4.238999843597412,2.5390000343322754 4.638999938964844,2.739000082015991 C4.638999938964844,2.739000082015991 13.538999557495117,5.839000225067139 13.538999557495117,5.839000225067139 C13.538999557495117,5.839000225067139 21.138999938964844,0.23899999260902405 21.138999938964844,0.23899999260902405 C21.538999557495117,-0.061000000685453415 22.038999557495117,-0.061000000685453415 22.538999557495117,0.13899999856948853 C22.93899917602539,0.33899998664855957 23.23900032043457,0.8389999866485596 23.23900032043457,1.3389999866485596 C23.23900032043457,1.3389999866485596 23.038999557495117,10.83899974822998 23.038999557495117,10.83899974822998 C23.038999557495117,10.83899974822998 30.73900032043457,16.339000701904297 30.73900032043457,16.339000701904297 C31.138999938964844,16.638999938964844 31.339000701904297,17.138999938964844 31.23900032043457,17.638999938964844 C31.138999938964844,18.138999938964844 30.839000701904297,18.538999557495117 30.339000701904297,18.638999938964844 C30.339000701904297,18.638999938964844 21.23900032043457,21.339000701904297 21.23900032043457,21.339000701904297 C21.23900032043457,21.339000701904297 18.538999557495117,30.339000701904297 18.538999557495117,30.339000701904297z"></path></g></g><g clip-path="url(#__lottie_element_1899)" transform="matrix(1,0,0,1,0,-432)" opacity="0.28476423821192653" style="display: block;"><g transform="matrix(1,0,0,1,861.2589721679688,727.594970703125)" opacity="1" style="display: block;"><g opacity="1" transform="matrix(1,0,0,1,0,0)"><path fill="rgb(236,225,239)" fill-opacity="1" d=" M30.541000366210938,5.004000186920166 C37.74100112915039,11.904000282287598 37.941001892089844,23.304000854492188 31.041000366210938,30.503999710083008 C24.141000747680664,37.70399856567383 12.741000175476074,37.90399932861328 5.540999889373779,31.003999710083008 C-1.659000039100647,24.104000091552734 -1.8589999675750732,12.704000473022461 5.040999889373779,5.504000186920166 C11.940999984741211,-1.5959999561309814 23.340999603271484,-1.8960000276565552 30.541000366210938,5.004000186920166z"></path></g></g><g transform="matrix(1,0,0,1,866.5390014648438,732.8379516601562)" opacity="1" style="display: block;"><g opacity="1" transform="matrix(1,0,0,1,0,0)"><path fill="rgb(130,130,168)" fill-opacity="1" d=" M24.861000061035156,14.861000061035156 C24.861000061035156,14.861000061035156 17.160999298095703,17.26099967956543 17.160999298095703,17.26099967956543 C17.160999298095703,17.26099967956543 14.76099967956543,24.961000442504883 14.76099967956543,24.961000442504883 C14.560999870300293,25.56100082397461 13.76099967956543,25.660999298095703 13.361000061035156,25.160999298095703 C13.361000061035156,25.160999298095703 8.76099967956543,18.56100082397461 8.76099967956543,18.56100082397461 C8.76099967956543,18.56100082397461 0.7609999775886536,18.660999298095703 0.7609999775886536,18.660999298095703 C0.16099999845027924,18.660999298095703 -0.23899999260902405,17.961000442504883 0.16099999845027924,17.361000061035156 C0.16099999845027924,17.361000061035156 4.960999965667725,10.961000442504883 4.960999965667725,10.961000442504883 C4.960999965667725,10.961000442504883 2.3610000610351562,3.3610000610351562 2.3610000610351562,3.3610000610351562 C2.1610000133514404,2.760999917984009 2.760999917984009,2.1610000133514404 3.3610000610351562,2.3610000610351562 C3.3610000610351562,2.3610000610351562 10.961000442504883,4.960999965667725 10.961000442504883,4.960999965667725 C10.961000442504883,4.960999965667725 17.361000061035156,0.16099999845027924 17.361000061035156,0.16099999845027924 C17.861000061035156,-0.23899999260902405 18.660999298095703,0.16099999845027924 18.56100082397461,0.7609999775886536 C18.56100082397461,0.7609999775886536 18.461000442504883,8.76099967956543 18.461000442504883,8.76099967956543 C18.461000442504883,8.76099967956543 24.961000442504883,13.461000442504883 24.961000442504883,13.461000442504883 C25.56100082397461,13.861000061035156 25.461000442504883,14.66100025177002 24.861000061035156,14.861000061035156z"></path></g></g></g><g clip-path="url(#__lottie_element_1868)" transform="matrix(1,0,0,1,0,-432)" opacity="1" style="display: block;"><g transform="matrix(1,0,0,1,354.9570007324219,578.5570068359375)" opacity="1" style="display: block;"><g opacity="1" transform="matrix(1,0,0,1,0,0)"><path fill="rgb(177,177,222)" fill-opacity="1" d=" M6.543000221252441,1.74399995803833 C-3.556999921798706,7.443999767303467 -1.5570000410079956,22.743999481201172 9.743000030517578,25.743999481201172 C11.743000030517578,26.243999481201172 13.543000221252441,27.54400062561035 14.642999649047852,29.3439998626709 C14.642999649047852,29.3439998626709 18.64299964904785,35.34400177001953 18.64299964904785,35.34400177001953 C19.743000030517578,36.944000244140625 21.94300079345703,37.54399871826172 23.64299964904785,36.54399871826172 C23.64299964904785,36.54399871826172 27.44300079345703,34.34400177001953 27.44300079345703,34.34400177001953 C29.14299964904785,33.34400177001953 29.843000411987305,31.243999481201172 29.042999267578125,29.444000244140625 C25.94300079345703,22.8439998626709 24.343000411987305,20.643999099731445 25.44300079345703,16.8439998626709 C28.743000030517578,5.544000148773193 16.64299964904785,-4.056000232696533 6.543000221252441,1.74399995803833z"></path></g></g><g transform="matrix(1,0,0,1,361.32000732421875,585.5360107421875)" opacity="1" style="display: block;"><g opacity="1" transform="matrix(1,0,0,1,0,0)"><path fill="rgb(251,243,255)" fill-opacity="1" d=" M9.880999565124512,1.9639999866485596 C9.781000137329102,2.864000082015991 10.281000137329102,3.7639999389648438 10.781000137329102,4.863999843597412 C11.480999946594238,4.064000129699707 12.281000137329102,3.063999891281128 12.281000137329102,1.9639999866485596 C12.281000137329102,1.2640000581741333 11.680999755859375,0.46399998664855957 10.980999946594238,0.46399998664855957 C10.880999565124512,0.5640000104904175 9.880999565124512,1.3639999628067017 9.880999565124512,1.9639999866485596z M1.38100004196167,9.763999938964844 C2.180999994277954,10.163999557495117 3.180999994277954,10.064000129699707 4.480999946594238,9.564000129699707 C3.88100004196167,8.663999557495117 3.180999994277954,7.863999843597412 2.2809998989105225,7.564000129699707 C0.2809999883174896,6.664000034332275 0.08100000023841858,9.163999557495117 1.38100004196167,9.763999938964844z M11.880999565124512,23.06399917602539 C9.081000328063965,17.464000701904297 5.781000137329102,11.763999938964844 4.88100004196167,10.163999557495117 C-1.11899995803833,12.763999938964844 -1.218999981880188,5.363999843597412 2.5810000896453857,6.964000225067139 C3.680999994277954,7.464000225067139 4.38100004196167,8.263999938964844 5.080999851226807,9.36400032043457 C7.080999851226807,8.46399974822998 8.880999565124512,7.064000129699707 10.281000137329102,5.464000225067139 C9.680999755859375,4.064000129699707 9.081000328063965,3.063999891281128 9.180999755859375,1.9639999866485596 C9.281000137329102,0.36399999260902405 10.880999565124512,-0.6359999775886536 12.081000328063965,0.46399998664855957 C12.581000328063965,0.8640000224113464 12.781000137329102,1.4639999866485596 12.781000137329102,2.063999891281128 C12.781000137329102,3.364000082015991 11.781000137329102,4.564000129699707 10.980999946594238,5.564000129699707 C12.980999946594238,10.064000129699707 15.180999755859375,14.564000129699707 17.381000518798828,18.964000701904297 C17.381000518798828,18.964000701904297 16.7810001373291,19.263999938964844 16.7810001373291,19.263999938964844 C14.581000328063965,14.96399974822998 12.480999946594238,10.564000129699707 10.480999946594238,6.164000034332275 C8.980999946594238,7.763999938964844 7.281000137329102,9.064000129699707 5.281000137329102,9.96399974822998 C6.480999946594238,12.064000129699707 9.680999755859375,17.663999557495117 12.281000137329102,22.86400032043457 C12.281000137329102,22.86400032043457 11.880999565124512,23.06399917602539 11.880999565124512,23.06399917602539z"></path></g></g><g transform="matrix(1,0,0,1,369.5,601.2000122070312)" opacity="1" style="display: block;"><g opacity="1" transform="matrix(1,0,0,1,0,0)"><path fill="rgb(130,130,168)" fill-opacity="1" d=" M0,6.5 C0,6.5 0.10000000149011612,6.599999904632568 0.10000000149011612,6.599999904632568 C0.10000000149011612,6.599999904632568 4.099999904632568,12.600000381469727 4.099999904632568,12.600000381469727 C5.199999809265137,14.199999809265137 7.400000095367432,14.800000190734863 9.100000381469727,13.800000190734863 C9.100000381469727,13.800000190734863 12.899999618530273,11.600000381469727 12.899999618530273,11.600000381469727 C14.600000381469727,10.600000381469727 15.300000190734863,8.5 14.5,6.699999809265137 C13.100000381469727,3.799999952316284 12.100000381469727,1.7000000476837158 11.399999618530273,0 C11.399999618530273,0 0,6.5 0,6.5z"></path></g></g><g transform="matrix(1,0,0,1,532.5,1074)" opacity="1" style="display: block;"><g opacity="1" transform="matrix(1,0,0,1,0,0)"><path stroke-linecap="butt" stroke-linejoin="miter" fill-opacity="0" stroke-miterlimit="4" stroke="rgb(177,177,222)" stroke-opacity="1" stroke-width="3" d="M0 0"></path></g></g><g transform="matrix(1,0,0,1,532.5,1074)" opacity="1" style="display: block;"><g opacity="1" transform="matrix(1,0,0,1,0,0)"><path stroke-linecap="butt" stroke-linejoin="miter" fill-opacity="0" stroke-miterlimit="4" stroke="rgb(177,177,222)" stroke-opacity="1" stroke-width="3" d="M0 0"></path></g></g><g transform="matrix(1,0,0,1,532.5,1074)" opacity="1" style="display: block;"><g opacity="1" transform="matrix(1,0,0,1,0,0)"><path stroke-linecap="butt" stroke-linejoin="miter" fill-opacity="0" stroke-miterlimit="4" stroke="rgb(177,177,222)" stroke-opacity="1" stroke-width="3" d=" M-185.2740020751953,-501.57598876953125 C-185.41900634765625,-501.68701171875 -185.5,-501.75 -185.5,-501.75"></path></g></g><g transform="matrix(1,0,0,1,532.5,1074)" opacity="1" style="display: block;"><g opacity="1" transform="matrix(1,0,0,1,0,0)"><path stroke-linecap="butt" stroke-linejoin="miter" fill-opacity="0" stroke-miterlimit="4" stroke="rgb(177,177,222)" stroke-opacity="1" stroke-width="3" d=" M-164.5330047607422,-508.60699462890625 C-164.91200256347656,-510.66400146484375 -165.25,-512.5 -165.25,-512.5"></path></g></g><g transform="matrix(1,0,0,1,532.5,1074)" opacity="1" style="display: block;"><g opacity="1" transform="matrix(1,0,0,1,0,0)"><path stroke-linecap="butt" stroke-linejoin="miter" fill-opacity="0" stroke-miterlimit="4" stroke="rgb(177,177,222)" stroke-opacity="1" stroke-width="3" d=" M-151.11900329589844,-497.2690124511719 C-149.39700317382812,-498.6820068359375 -144.75,-502.5 -144.75,-502.5"></path></g></g><g transform="matrix(1,0,0,1,532.5,1074)" opacity="1" style="display: block;"><g opacity="1" transform="matrix(1,0,0,1,0,0)"><path stroke-linecap="butt" stroke-linejoin="miter" fill-opacity="0" stroke-miterlimit="4" stroke="rgb(177,177,222)" stroke-opacity="1" stroke-width="3" d=" M-143.5,-482.5 C-143.5,-482.5 -139.40899658203125,-482.3949890136719 -136.52699279785156,-482.3210144042969"></path></g></g></g><g clip-path="url(#__lottie_element_1843)" transform="matrix(0.9848899841308594,0.17318113148212433,-0.17318113148212433,0.9848899841308594,118.98431396484375,-555.7214965820312)" opacity="1" style="display: block;"><g transform="matrix(1,0,0,1,744.7000122070312,589.800048828125)" opacity="1" style="display: block;"><g opacity="1" transform="matrix(1,0,0,1,0,0)"><path fill="rgb(177,177,222)" fill-opacity="1" d=" M34.79999923706055,0 C34.79999923706055,0 31.600000381469727,5.900000095367432 31.600000381469727,5.900000095367432 C24,19.899999618530273 13.800000190734863,32.599998474121094 1.399999976158142,43.400001525878906 C1.399999976158142,43.400001525878906 0,44.599998474121094 0,44.599998474121094 C0,44.599998474121094 2.5999999046325684,56.5 14.600000381469727,54.400001525878906 C14.600000381469727,54.400001525878906 14.600000381469727,54.400001525878906 14.600000381469727,54.400001525878906 C23.899999618530273,40.20000076293945 34.70000076293945,27.5 47.400001525878906,15.699999809265137 C47.400001525878906,15.699999809265137 52.099998474121094,11.899999618530273 52.099998474121094,11.899999618530273 C52.099998474121094,11.899999618530273 34.79999923706055,0 34.79999923706055,0z"></path></g></g><g transform="matrix(1,0,0,1,779.406005859375,589.4840087890625)" opacity="1" style="display: block;"><g opacity="1" transform="matrix(1,0,0,1,0,0)"><path fill="rgb(214,214,237)" fill-opacity="1" d=" M17.493999481201172,12.21500015258789 C16.79400062561035,13.114999771118164 12.293999671936035,11.114999771118164 7.49399995803833,7.815000057220459 C2.694000005722046,4.514999866485596 -0.6060000061988831,1.1150000095367432 0.09399999678134918,0.2150000035762787 C0.7940000295639038,-0.6850000023841858 5.294000148773193,1.315000057220459 10.093999862670898,4.715000152587891 C14.894000053405762,8.114999771118164 18.194000244140625,11.414999961853027 17.493999481201172,12.21500015258789z"></path></g></g><g transform="matrix(1,0,0,1,782.5999755859375,592.2000122070312)" opacity="1" style="display: block;"><g opacity="1" transform="matrix(1,0,0,1,0,0)"><path fill="rgb(130,130,168)" fill-opacity="1" d=" M14.300000190734863,9.600000381469727 C14.300000190734863,9.600000381469727 14.300000190734863,9.600000381469727 14.300000190734863,9.600000381469727 C14.300000190734863,9.600000381469727 3.299999952316284,3.4000000953674316 1.2999999523162842,0 C1.2999999523162842,0 0,1.7000000476837158 0,1.7000000476837158 C1.2000000476837158,2.799999952316284 2.700000047683716,3.9000000953674316 4.400000095367432,5.099999904632568 C9.100000381469727,8.399999618530273 13.5,10.399999618530273 14.300000190734863,9.600000381469727z"></path></g></g><g transform="matrix(1,0,0,1,761.5,614.7000122070312)" opacity="1" style="display: block;"><g opacity="1" transform="matrix(1,0,0,1,0,0)"><path fill="rgb(255,118,133)" fill-opacity="1" d=" M15.399999618530273,6.5 C14,7 7.699999809265137,8.399999618530273 2.200000047683716,0 C1.5,0.8999999761581421 0.800000011920929,1.7999999523162842 0,2.700000047683716 C3.799999952316284,7.900000095367432 7.900000095367432,9.5 10.800000190734863,9.899999618530273 C11.300000190734863,10 11.899999618530273,10 12.300000190734863,10 C13.300000190734863,8.899999618530273 14.399999618530273,7.699999809265137 15.399999618530273,6.5z"></path></g></g><g transform="matrix(1,0,0,1,755.5,601.300048828125)" opacity="1" style="display: block;"><g opacity="1" transform="matrix(1,0,0,1,0,0)"><path fill="rgb(255,118,133)" fill-opacity="1" d=" M10.300000190734863,13.699999809265137 C10.300000190734863,13.699999809265137 6.400000095367432,0 6.400000095367432,0 C6.400000095367432,0 4.400000095367432,4.099999904632568 4.400000095367432,4.099999904632568 C4.400000095367432,4.099999904632568 0,3.5 0,3.5 C0,3.5 7.699999809265137,15.199999809265137 7.699999809265137,15.199999809265137 C7.699999809265137,15.199999809265137 10.300000190734863,13.699999809265137 10.300000190734863,13.699999809265137z"></path></g></g><g transform="matrix(1,0,0,1,751.8999633789062,615.5)" opacity="1" style="display: block;"><g opacity="1" transform="matrix(1,0,0,1,0,0)"><path fill="rgb(255,118,133)" fill-opacity="1" d=" M10.800000190734863,1.899999976158142 C10.800000190734863,1.899999976158142 0,0 0,0 C0,0 2.5,3 2.5,3 C2.5,3 0,5.199999809265137 0,5.199999809265137 C0,5.199999809265137 10.399999618530273,4.400000095367432 10.399999618530273,4.400000095367432 C10.399999618530273,4.400000095367432 10.800000190734863,1.899999976158142 10.800000190734863,1.899999976158142z"></path></g></g><g transform="matrix(1,0,0,1,760.4769897460938,613.5130004882812)" opacity="1" style="display: block;"><g opacity="1" transform="matrix(1,0,0,1,0,0)"><path fill="rgb(255,118,133)" fill-opacity="1" d=" M0.3230000138282776,6.486999988555908 C-0.6769999861717224,4.186999797821045 0.7229999899864197,1.3869999647140503 3.4230000972747803,0.3869999945163727 C6.0229997634887695,-0.6129999756813049 9.02299976348877,0.3869999945163727 9.92300033569336,2.687000036239624 C10.92300033569336,4.986999988555908 9.52299976348877,7.7870001792907715 6.822999954223633,8.786999702453613 C4.123000144958496,9.88700008392334 1.2230000495910645,8.88700008392334 0.3230000138282776,6.486999988555908z"></path></g></g></g><g clip-path="url(#__lottie_element_1833)" transform="matrix(1,0,0,1,0,-432)" opacity="0.6423750000000081" style="display: block;"><g transform="matrix(1,0,0,1,474.1910095214844,543.323974609375)" opacity="1" style="display: block;"><g opacity="1" transform="matrix(1,0,0,1,0,0)"><path fill="rgb(177,177,222)" fill-opacity="1" d=" M39.10900115966797,23.676000595092773 C36.909000396728516,34.375999450683594 26.509000778198242,41.2760009765625 15.809000015258789,39.17599868774414 C5.109000205993652,36.97600173950195 -1.7910000085830688,26.576000213623047 0.4090000092983246,15.87600040435791 C2.6089999675750732,5.176000118255615 13.008999824523926,-1.7239999771118164 23.708999633789062,0.37599998712539673 C34.409000396728516,2.4760000705718994 41.308998107910156,12.97599983215332 39.10900115966797,23.676000595092773z"></path></g></g><g transform="matrix(1,0,0,1,482.77398681640625,564)" opacity="1" style="display: block;"><g opacity="1" transform="matrix(1,0,0,1,0,0)"><path fill="rgb(239,239,239)" fill-opacity="1" d=" M0.22599999606609344,0 C-0.9739999771118164,5.699999809265137 2.7260000705718994,11.300000190734863 8.526000022888184,12.5 C14.22599983215332,13.699999809265137 19.826000213623047,10 21.025999069213867,4.199999809265137 C21.025999069213867,4.199999809265137 0.22599999606609344,0 0.22599999606609344,0z"></path></g></g></g><g clip-path="url(#__lottie_element_1793)" transform="matrix(1,0,0,1,0,-432)" opacity="1" style="display: block;"><g transform="matrix(1,0,0,1,824.4650268554688,908.4650268554688)" opacity="0.6423750000000081" style="display: block;"><g opacity="1" transform="matrix(1,0,0,1,0,0)"><path fill="rgb(177,177,222)" fill-opacity="1" d=" M14.635000228881836,5.034999847412109 C16.03499984741211,8.9350004196167 13.9350004196167,13.234999656677246 10.03499984741211,14.635000228881836 C6.135000228881836,16.03499984741211 1.8350000381469727,13.9350004196167 0.4350000023841858,10.03499984741211 C-0.9649999737739563,6.135000228881836 1.1349999904632568,1.8350000381469727 5.034999847412109,0.4350000023841858 C8.9350004196167,-0.9649999737739563 13.234999656677246,1.1349999904632568 14.635000228881836,5.034999847412109z"></path></g></g><g transform="matrix(1,0,0,1,848.0650024414062,928.6650390625)" opacity="0.6423750000000081" style="display: block;"><g opacity="1" transform="matrix(1,0,0,1,0,0)"><path fill="rgb(177,177,222)" fill-opacity="1" d=" M14.635000228881836,5.034999847412109 C16.03499984741211,8.9350004196167 13.9350004196167,13.234999656677246 10.03499984741211,14.635000228881836 C6.135000228881836,16.03499984741211 1.8350000381469727,13.9350004196167 0.4350000023841858,10.03499984741211 C-0.9649999737739563,6.135000228881836 1.1349999904632568,1.8350000381469727 5.034999847412109,0.4350000023841858 C9.03499984741211,-0.9649999737739563 13.335000038146973,1.1349999904632568 14.635000228881836,5.034999847412109z"></path></g></g><g transform="matrix(1,0,0,1,877.7650146484375,919.6650390625)" opacity="0.6423750000000081" style="display: block;"><g opacity="1" transform="matrix(1,0,0,1,0,0)"><path fill="rgb(177,177,222)" fill-opacity="1" d=" M14.635000228881836,5.034999847412109 C16.03499984741211,8.9350004196167 13.9350004196167,13.234999656677246 10.03499984741211,14.635000228881836 C6.135000228881836,16.03499984741211 1.8350000381469727,13.9350004196167 0.4350000023841858,10.03499984741211 C-0.9649999737739563,6.135000228881836 1.1349999904632568,1.8350000381469727 5.034999847412109,0.4350000023841858 C8.9350004196167,-0.9649999737739563 13.234999656677246,1.1349999904632568 14.635000228881836,5.034999847412109z"></path></g></g><g transform="matrix(1,0,0,1,892.8650512695312,937.6650390625)" opacity="0.6423750000000081" style="display: block;"><g opacity="1" transform="matrix(1,0,0,1,0,0)"><path fill="rgb(177,177,222)" fill-opacity="1" d=" M14.635000228881836,5.034999847412109 C16.03499984741211,8.9350004196167 13.9350004196167,13.234999656677246 10.03499984741211,14.635000228881836 C6.135000228881836,16.03499984741211 1.8350000381469727,13.9350004196167 0.4350000023841858,10.03499984741211 C-0.9649999737739563,6.135000228881836 1.1349999904632568,1.8350000381469727 5.034999847412109,0.4350000023841858 C8.9350004196167,-0.9649999737739563 13.234999656677246,1.1349999904632568 14.635000228881836,5.034999847412109z"></path></g></g><g transform="matrix(1,0,0,1,909.0650024414062,883.0050048828125)" opacity="0.6423750000000081" style="display: block;"><g opacity="1" transform="matrix(1,0,0,1,0,0)"><path fill="rgb(177,177,222)" fill-opacity="1" d=" M14.635000228881836,4.994999885559082 C16.03499984741211,8.895000457763672 13.9350004196167,13.194999694824219 10.03499984741211,14.595000267028809 C6.135000228881836,15.994999885559082 1.8350000381469727,13.895000457763672 0.4350000023841858,9.994999885559082 C-0.9649999737739563,6.09499979019165 1.1349999904632568,1.7960000038146973 5.034999847412109,0.3959999978542328 C8.9350004196167,-0.9039999842643738 13.234999656677246,1.0950000286102295 14.635000228881836,4.994999885559082z"></path></g></g><g transform="matrix(1,0,0,1,877.0650024414062,846.2550048828125)" opacity="0.6423750000000081" style="display: block;"><g opacity="1" transform="matrix(1,0,0,1,0,0)"><path fill="rgb(177,177,222)" fill-opacity="1" d=" M14.635000228881836,5.045000076293945 C16.03499984741211,8.944999694824219 13.9350004196167,13.244999885559082 10.03499984741211,14.645000457763672 C6.135000228881836,16.045000076293945 1.8350000381469727,13.944999694824219 0.4350000023841858,10.045000076293945 C-0.9649999737739563,6.144999980926514 1.1349999904632568,1.8450000286102295 5.034999847412109,0.4449999928474426 C8.9350004196167,-0.9549999833106995 13.234999656677246,1.0449999570846558 14.635000228881836,5.045000076293945z"></path></g></g><g transform="matrix(1,0,0,1,887.3650512695312,888.7650146484375)" opacity="0.6423750000000081" style="display: block;"><g opacity="1" transform="matrix(1,0,0,1,0,0)"><path fill="rgb(177,177,222)" fill-opacity="1" d=" M14.635000228881836,5.034999847412109 C16.03499984741211,8.9350004196167 13.9350004196167,13.234999656677246 10.03499984741211,14.635000228881836 C6.135000228881836,16.03499984741211 1.8350000381469727,13.9350004196167 0.4350000023841858,10.03499984741211 C-0.9649999737739563,6.135000228881836 1.1349999904632568,1.8350000381469727 5.034999847412109,0.4350000023841858 C8.9350004196167,-0.9649999737739563 13.234999656677246,1.1349999904632568 14.635000228881836,5.034999847412109z"></path></g></g><g transform="matrix(1,0,0,1,865.0650024414062,865.8650512695312)" opacity="0.6423750000000081" style="display: block;"><g opacity="1" transform="matrix(1,0,0,1,0,0)"><path fill="rgb(177,177,222)" fill-opacity="1" d=" M14.635000228881836,5.034999847412109 C16.03499984741211,8.9350004196167 13.9350004196167,13.234999656677246 10.03499984741211,14.635000228881836 C6.135000228881836,16.03499984741211 1.8350000381469727,13.9350004196167 0.4350000023841858,10.03499984741211 C-0.9649999737739563,6.135000228881836 1.1349999904632568,1.8350000381469727 5.034999847412109,0.4350000023841858 C9.03499984741211,-0.9649999737739563 13.335000038146973,1.1349999904632568 14.635000228881836,5.034999847412109z"></path></g></g><g transform="matrix(1,0,0,1,532.5,1074)" opacity="1" style="display: block;"><g opacity="1" transform="matrix(1,0,0,1,0,0)"><path stroke-linecap="butt" stroke-linejoin="miter" fill-opacity="0" stroke-miterlimit="4" stroke="rgb(131,131,169)" stroke-opacity="1" stroke-width="3" d=" M343.77801513671875,-144.63499450683594 C348.67401123046875,-145.96200561523438 352.5,-147 352.5,-147 C352.5,-147 361.25,-177.5 361.25,-177.5 C361.25,-177.5 340.375,-199.875 340.375,-199.875 C340.375,-199.875 349,-217.125 349,-217.125"></path></g></g><g transform="matrix(1,0,0,1,532.5,1074)" opacity="1" style="display: block;"><g opacity="1" transform="matrix(1,0,0,1,0,0)"><path stroke-linecap="butt" stroke-linejoin="miter" fill-opacity="0" stroke-miterlimit="4" stroke="rgb(131,131,169)" stroke-opacity="1" stroke-width="3" d=" M355.6210021972656,-142.69200134277344 C359.6189880371094,-138.1750030517578 365.75,-131.25 365.75,-131.25"></path></g></g><g transform="matrix(1,0,0,1,532.5,1074)" opacity="1" style="display: block;"><g opacity="1" transform="matrix(1,0,0,1,0,0)"><path stroke-linecap="butt" stroke-linejoin="miter" fill-opacity="0" stroke-miterlimit="4" stroke="rgb(131,131,169)" stroke-opacity="1" stroke-width="3" d=" M362.0950012207031,-176.5399932861328 C365.5920104980469,-177.73899841308594 378.75,-182.25 378.75,-182.25"></path></g></g><g transform="matrix(1,0,0,1,532.5,1074)" opacity="1" style="display: block;"><g opacity="1" transform="matrix(1,0,0,1,0,0)"><path stroke-linecap="butt" stroke-linejoin="miter" fill-opacity="0" stroke-miterlimit="4" stroke="rgb(131,131,169)" stroke-opacity="1" stroke-width="3" d=" M340.5,-200.75 C340.5,-200.75 345.6000061035156,-210.5760040283203 347.89898681640625,-215.0050048828125"></path></g></g></g><g transform="matrix(0.9944981932640076,0.10475358366966248,-0.10475358366966248,0.9944981932640076,327.9259338378906,364.65509033203125)" opacity="1" style="display: block;"><g opacity="1" transform="matrix(1,0,0,1,0,0)"><path fill="rgb(247,164,145)" fill-opacity="1" d=" M107.88099670410156,80.18099975585938 C107.88099670410156,80.18099975585938 60.48099899291992,10.781000137329102 60.48099899291992,10.781000137329102 C60.48099899291992,10.781000137329102 60.48099899291992,10.680999755859375 60.48099899291992,10.680999755859375 C60.48099899291992,10.680999755859375 49.678001403808594,13.84000015258789 52.013999938964844,25.91900062561035 C54.7140007019043,33.71900177001953 79.98100280761719,123.78099822998047 107.98100280761719,133.68099975585938 C107.98100280761719,133.68099975585938 122.822998046875,122.85900115966797 126.03600311279297,106.10700225830078 C126.322998046875,105.85900115966797 107.88099670410156,80.18099975585938 107.88099670410156,80.18099975585938z"></path></g></g><g transform="matrix(0.9478854537010193,0.3186115324497223,-0.3186115324497223,0.9478854537010193,335.19775390625,353.95697021484375)" opacity="1" style="display: block;"><g opacity="1" transform="matrix(1,0,0,1,0,0)"><path fill="rgb(247,164,145)" fill-opacity="1" d=" M35.98099899291992,14.581000328063965 C33.88100051879883,15.380999565124512 26.381000518798828,15.781000137329102 24.481000900268555,15.081000328063965 C22.481000900268555,14.380999565124512 19.58099937438965,6.781000137329102 19.58099937438965,6.781000137329102 C19.58099937438965,6.781000137329102 20.481000900268555,4.480999946594238 20.680999755859375,2.7809998989105225 C22.881000518798828,5.181000232696533 32.180999755859375,4.080999851226807 34.28099822998047,5.480999946594238 C36.38100051879883,6.980999946594238 38.08100128173828,13.781000137329102 35.98099899291992,14.581000328063965z M60.48099899291992,10.781000137329102 C60.48099899291992,10.781000137329102 60.48099899291992,10.680999755859375 60.48099899291992,10.680999755859375 C60.48099899291992,10.680999755859375 43.08100128173828,1.88100004196167 38.680999755859375,0.9810000061988831 C34.78099822998047,0.2809999883174896 22.2810001373291,-0.9190000295639038 20.2810001373291,1.180999994277954 C20.180999755859375,1.0809999704360962 20.08099937438965,0.8809999823570251 19.881000518798828,0.8809999823570251 C18.180999755859375,0.48100000619888306 15.180999755859375,6.080999851226807 14.781000137329102,7.38100004196167 C14.380999565124512,8.781000137329102 17.7810001373291,16.58099937438965 18.08099937438965,17.180999755859375 C18.381000518798828,17.7810001373291 17.180999755859375,18.08099937438965 15.680999755859375,17.481000900268555 C14.180999755859375,16.881000518798828 9.380999565124512,11.480999946594238 9.380999565124512,11.480999946594238 C9.380999565124512,11.480999946594238 8.880999565124512,2.680999994277954 6.080999851226807,2.680999994277954 C3.2809998989105225,2.680999994277954 5.781000137329102,13.781000137329102 5.781000137329102,13.781000137329102 C5.781000137329102,13.781000137329102 8.581000328063965,17.481000900268555 8.581000328063965,17.481000900268555 C8.581000328063965,17.481000900268555 4.480999946594238,14.980999946594238 4.480999946594238,14.980999946594238 C4.480999946594238,14.980999946594238 1.680999994277954,9.081000328063965 0.9810000061988831,9.380999565124512 C0.2809999883174896,9.680999755859375 -0.718999981880188,12.680999755859375 0.781000018119812,15.880999565124512 C2.38100004196167,18.981000900268555 5.681000232696533,22.381000518798828 5.681000232696533,22.381000518798828 C5.681000232696533,22.381000518798828 11.880999565124512,25.58099937438965 11.880999565124512,25.58099937438965 C11.880999565124512,25.58099937438965 4.681000232696533,24.981000900268555 2.5810000896453857,23.381000518798828 C0.48100000619888306,21.7810001373291 -0.4189999997615814,24.08099937438965 1.281000018119812,25.981000900268555 C2.9809999465942383,27.881000518798828 12.480999946594238,31.180999755859375 18.481000900268555,31.881000518798828 C24.481000900268555,32.58100128173828 43.14099884033203,31.393999099731445 45.88100051879883,31.58099937438965 C45.73099899291992,31.4060001373291 53.98099899291992,31.6560001373291 54.180999755859375,31.680999755859375 C68.35600280761719,26.4060001373291 60.48099899291992,10.781000137329102 60.48099899291992,10.781000137329102z"></path></g></g><g transform="matrix(0.9992272853851318,0.03930402547121048,-0.03930402547121048,0.9992272853851318,319.709228515625,371.0740966796875)" opacity="1" style="display: block;"><g opacity="1" transform="matrix(1,0,0,1,0,0)"><path fill="rgb(247,164,145)" fill-opacity="1" d=" M122.98100280761719,31.7810001373291 C122.98100280761719,31.7810001373291 107.88099670410156,80.18099975585938 107.88099670410156,80.18099975585938 C107.88099670410156,80.18099975585938 79.98100280761719,123.78099822998047 107.98100280761719,133.68099975585938 C107.98100280761719,133.68099975585938 120.88099670410156,131.9810028076172 135.58099365234375,98.48100280761719 C150.281005859375,64.98100280761719 158.18099975585938,44.78099822998047 158.18099975585938,44.78099822998047 C158.18099975585938,44.78099822998047 122.98100280761719,31.7810001373291 122.98100280761719,31.7810001373291z"></path></g></g><g transform="matrix(0.9992272853851318,0.03930402547121048,-0.03930402547121048,0.9992272853851318,435.5558776855469,320.77044677734375)" opacity="1" style="display: block;"><g opacity="1" transform="matrix(1,0,0,1,0,0)"><path fill="rgb(255,118,133)" fill-opacity="1" d=" M61.599998474121094,5.800000190734863 C61.599998474121094,5.800000190734863 50.099998474121094,0 50.099998474121094,0 C50.099998474121094,0 35.70000076293945,0.6000000238418579 30.399999618530273,13.399999618530273 C26.68600082397461,22.3700008392334 0,93.80000305175781 0,93.80000305175781 C0,93.80000305175781 34.70000076293945,107.30000305175781 45.70000076293945,106.69999694824219 C45.70000076293945,106.69999694824219 62.599998474121094,62.29999923706055 62.599998474121094,62.29999923706055 C62.599998474121094,62.29999923706055 61.599998474121094,5.800000190734863 61.599998474121094,5.800000190734863z"></path></g></g><g transform="matrix(0.9889059662818909,-0.14854298532009125,0.14854298532009125,0.9889059662818909,485.5168762207031,205.54153442382812)" opacity="1" style="display: block;"><g opacity="1" transform="matrix(1,0,0,1,0,0)"><path fill="rgb(51,51,67)" fill-opacity="1" d=" M7.063000202178955,98.59400177001953 C-1.6369999647140503,80.79399871826172 -2.13700008392334,47.19499969482422 4.663000106811523,27.4950008392334 C10.163000106811523,11.494999885559082 23.46299934387207,2.3940000534057617 40.4630012512207,0.593999981880188 C60.26300048828125,-1.6059999465942383 67.59600067138672,4.6620001792907715 82.99600219726562,14.76200008392334 C99.09600067138672,25.261999130249023 107.12284851074219,27.831859588623047 131.94175720214844,45.59700012207031 C146.739501953125,51.03968048095703 166.8104248046875,56.441837310791016 199.6892547607422,75.30799865722656 C218.29917907714844,87.3479995727539 259.60125732421875,128.8404998779297 232.3979949951172,190.32650756835938 C221.3459930419922,210.48849487304688 197.69337463378906,220.76553344726562 169.95700073242188,221.71299743652344 C142.79200744628906,222.6269989013672 110.10399627685547,205.54249572753906 97.83999633789062,183.61549377441406 C88.42900085449219,158.87049865722656 72.2770004272461,155.0019989013672 63.141998291015625,151.322998046875 C55.04199981689453,141.92300415039062 43.545570373535156,122.2249984741211 39.26300048828125,120.0009994506836 C23.975000381469727,116.9010009765625 14.062999725341797,112.89399719238281 7.063000202178955,98.59400177001953z"></path></g></g><g transform="matrix(0.9960517287254333,-0.08877536654472351,0.08877536654472351,0.9960517287254333,605.751953125,374.16021728515625)" opacity="1" style="display: block;"><g opacity="1" transform="matrix(1,0,0,1,0,0)"><path fill="rgb(247,164,145)" fill-opacity="1" d=" M122.80000305175781,5.460999965667725 C124.80000305175781,4.060999870300293 134.1999969482422,4.761000156402588 136.3000030517578,2.3610000610351562 C136.60000610351562,4.060999870300293 137.5,6.261000156402588 137.5,6.261000156402588 C137.5,6.261000156402588 134.8000030517578,13.961000442504883 132.8000030517578,14.76099967956543 C130.89999389648438,15.560999870300293 123.4000015258789,15.361000061035156 121.30000305175781,14.66100025177002 C119.19999694824219,13.961000442504883 120.5999984741211,7.060999870300293 122.80000305175781,5.460999965667725z M53.29999923706055,136.06100463867188 C80.9000015258789,125.26100158691406 101.0999984741211,40.1609992980957 103.5,32.361000061035156 C105.5,31.160999298095703 109.5999984741211,31.660999298095703 111.80000305175781,31.961000442504883 C114.5,32.361000061035156 133.1999969482422,32.1609992980957 139.1999969482422,31.361000061035156 C145.1999969482422,30.461000442504883 154.60000610351562,26.861000061035156 156.1999969482422,24.961000442504883 C157.8000030517578,22.961000442504883 156.89999389648438,20.76099967956543 154.8000030517578,22.461000442504883 C152.6999969482422,24.160999298095703 145.5,25.06100082397461 145.5,25.06100082397461 C145.5,25.06100082397461 151.60000610351562,21.660999298095703 151.60000610351562,21.660999298095703 C151.60000610351562,21.660999298095703 154.8000030517578,18.160999298095703 156.3000030517578,14.961000442504883 C157.6999969482422,11.76099967956543 156.60000610351562,8.76099967956543 155.89999389648438,8.560999870300293 C155.10000610351562,8.26099967956543 152.60000610351562,14.361000061035156 152.60000610351562,14.361000061035156 C152.60000610351562,14.361000061035156 148.60000610351562,16.961000442504883 148.60000610351562,16.961000442504883 C148.60000610351562,16.961000442504883 151.1999969482422,13.16100025177002 151.1999969482422,13.16100025177002 C151.1999969482422,13.16100025177002 153.39999389648438,2.061000108718872 150.60000610351562,2.061000108718872 C147.8000030517578,2.061000108718872 147.60000610351562,10.961000442504883 147.60000610351562,10.961000442504883 C147.60000610351562,10.961000442504883 143,16.56100082397461 141.60000610351562,17.26099967956543 C140.10000610351562,17.861000061035156 138.89999389648438,17.56100082397461 139.1999969482422,16.961000442504883 C139.5,16.361000061035156 142.6999969482422,8.361000061035156 142.1999969482422,7.060999870300293 C141.6999969482422,5.761000156402588 138.5,0.26100000739097595 136.8000030517578,0.6610000133514404 C136.60000610351562,0.7609999775886536 136.5,0.8610000014305115 136.39999389648438,0.9610000252723694 C134.39999389648438,-1.0390000343322754 121.9000015258789,0.5609999895095825 118.0999984741211,1.4609999656677246 C113.80000305175781,2.4609999656677246 96.69999694824219,11.861000061035156 96.69999694824219,11.861000061035156 C96.69999694824219,11.861000061035156 96.69999694824219,11.961000442504883 96.69999694824219,11.961000442504883 C96.69999694824219,11.961000442504883 51.70000076293945,82.96099853515625 51.70000076293945,82.96099853515625 C51.70000076293945,82.96099853515625 35.45000076293945,106.36100006103516 35.707000732421875,106.59600067138672 C31.450000762939453,128.86099243164062 53.29999923706055,136.06100463867188 53.29999923706055,136.06100463867188z"></path></g></g><g transform="matrix(0.9528779983520508,-0.30335405468940735,0.30335405468940735,0.9528779983520508,604.9490356445312,396.5147705078125)" opacity="1" style="display: block;"><g opacity="1" transform="matrix(1,0,0,1,0,0)"><path fill="rgb(247,164,145)" fill-opacity="1" d=" M122.80000305175781,5.460999965667725 C124.80000305175781,4.060999870300293 134.1999969482422,4.761000156402588 136.3000030517578,2.3610000610351562 C136.60000610351562,4.060999870300293 137.5,6.261000156402588 137.5,6.261000156402588 C137.5,6.261000156402588 134.8000030517578,13.961000442504883 132.8000030517578,14.76099967956543 C130.89999389648438,15.560999870300293 123.4000015258789,15.361000061035156 121.30000305175781,14.66100025177002 C119.19999694824219,13.961000442504883 120.5999984741211,7.060999870300293 122.80000305175781,5.460999965667725z M103.5,32.361000061035156 C102.69999694824219,32.861000061035156 109.5999984741211,31.660999298095703 111.80000305175781,31.961000442504883 C114.5,32.361000061035156 133.1999969482422,32.1609992980957 139.1999969482422,31.361000061035156 C145.1999969482422,30.461000442504883 154.60000610351562,26.861000061035156 156.1999969482422,24.961000442504883 C157.8000030517578,22.961000442504883 156.89999389648438,20.76099967956543 154.8000030517578,22.461000442504883 C152.6999969482422,24.160999298095703 145.5,25.06100082397461 145.5,25.06100082397461 C145.5,25.06100082397461 151.60000610351562,21.660999298095703 151.60000610351562,21.660999298095703 C151.60000610351562,21.660999298095703 154.8000030517578,18.160999298095703 156.3000030517578,14.961000442504883 C157.6999969482422,11.76099967956543 156.60000610351562,8.76099967956543 155.89999389648438,8.560999870300293 C155.10000610351562,8.26099967956543 152.60000610351562,14.361000061035156 152.60000610351562,14.361000061035156 C152.60000610351562,14.361000061035156 148.60000610351562,16.961000442504883 148.60000610351562,16.961000442504883 C148.60000610351562,16.961000442504883 151.1999969482422,13.16100025177002 151.1999969482422,13.16100025177002 C151.1999969482422,13.16100025177002 153.39999389648438,2.061000108718872 150.60000610351562,2.061000108718872 C147.8000030517578,2.061000108718872 147.60000610351562,10.961000442504883 147.60000610351562,10.961000442504883 C147.60000610351562,10.961000442504883 143,16.56100082397461 141.60000610351562,17.26099967956543 C140.10000610351562,17.861000061035156 138.89999389648438,17.56100082397461 139.1999969482422,16.961000442504883 C139.5,16.361000061035156 142.6999969482422,8.361000061035156 142.1999969482422,7.060999870300293 C141.6999969482422,5.761000156402588 138.5,0.26100000739097595 136.8000030517578,0.6610000133514404 C136.60000610351562,0.7609999775886536 136.5,0.8610000014305115 136.39999389648438,0.9610000252723694 C134.39999389648438,-1.0390000343322754 121.9000015258789,0.5609999895095825 118.0999984741211,1.4609999656677246 C113.80000305175781,2.4609999656677246 96.69999694824219,11.861000061035156 96.69999694824219,11.861000061035156 C96.69999694824219,11.861000061035156 96.69999694824219,11.961000442504883 96.69999694824219,11.961000442504883 C96.69999694824219,11.961000442504883 86.80000305175781,30.861000061035156 103.5,32.361000061035156z"></path></g></g><g transform="matrix(0.9997295141220093,-0.023258322849869728,0.023258322849869728,0.9997295141220093,613.1063842773438,370.49346923828125)" opacity="1" style="display: block;"><g opacity="1" transform="matrix(1,0,0,1,0,0)"><path fill="rgb(247,164,145)" fill-opacity="1" d=" M0,48.96099853515625 C0,48.96099853515625 8.600000381469727,68.86100006103516 24.5,101.86100006103516 C40.400001525878906,134.86099243164062 53.29999923706055,136.06100463867188 53.29999923706055,136.06100463867188 C80.9000015258789,125.26100158691406 51.70000076293945,82.96099853515625 51.70000076293945,82.96099853515625 C51.70000076293945,82.96099853515625 35,35.1609992980957 35,35.1609992980957 C35,35.1609992980957 0,48.96099853515625 0,48.96099853515625z"></path></g></g><g transform="matrix(0.9997295141220093,-0.023258322849869728,0.023258322849869728,0.9997295141220093,589.6509399414062,321.0876159667969)" opacity="1" style="display: block;"><g opacity="1" transform="matrix(1,0,0,1,0,0)"><path fill="rgb(255,118,133)" fill-opacity="1" d=" M0,5.900000095367432 C0,5.900000095367432 17.549999237060547,0 17.549999237060547,0 C17.549999237060547,0 24,1.7999999523162842 30.200000762939453,13.300000190734863 C36.5,20.700000762939453 64.5999984741211,91.80000305175781 64.5999984741211,91.80000305175781 C64.5999984741211,91.80000305175781 30.399999618530273,106.5 19.399999618530273,106.30000305175781 C19.399999618530273,106.30000305175781 1,62.5 1,62.5 C1,62.5 0,5.900000095367432 0,5.900000095367432z"></path></g></g><g transform="matrix(1,0,0,1,366.322021484375,513.4884643554688)" opacity="1" style="display: block;"><g opacity="1" transform="matrix(1,0,0,1,0,0)"><path fill="rgb(130,130,168)" fill-opacity="1" d=" M170.77699279785156,30.110000610351562 C170.77699279785156,30.110000610351562 149.677001953125,19.209999084472656 120.97699737548828,10.710000038146973 C82.47699737548828,-0.6899999976158142 30.57699966430664,-8.289999961853027 1.1770000457763672,16.309999465942383 C-16.12299919128418,30.709999084472656 162.9770050048828,49.810001373291016 162.9770050048828,49.810001373291016 C162.9770050048828,49.810001373291016 170.77699279785156,30.110000610351562 170.77699279785156,30.110000610351562z"></path></g></g><g transform="matrix(1,0,0,1,529.2999877929688,514.4884643554688)" opacity="1" style="display: block;"><g opacity="1" transform="matrix(1,0,0,1,0,0)"><path fill="rgb(130,130,168)" fill-opacity="1" d=" M201.39999389648438,24.410999298095703 C201.39999389648438,24.410999298095703 184.39999389648438,-0.5889999866485596 140.5,0.010999999940395355 C123.4000015258789,0.210999995470047 99.69999694824219,3.6110000610351562 78.19999694824219,7.910999774932861 C39.70000076293945,15.51099967956543 3.4000000953674316,28.31100082397461 3.4000000953674316,28.31100082397461 C3.4000000953674316,28.31100082397461 0,48.81100082397461 0,48.81100082397461 C0,48.81100082397461 201.39999389648438,24.410999298095703 201.39999389648438,24.410999298095703z"></path></g></g><g transform="matrix(1,0,0,1,481.3000183105469,519.8984375)" opacity="1" style="display: block;"><g opacity="1" transform="matrix(1,0,0,1,0,0)"><path fill="rgb(130,130,168)" fill-opacity="1" d=" M0,54.599998474121094 C0,54.599998474121094 77.9000015258789,92.5 77.9000015258789,92.5 C77.9000015258789,92.5 138.8000030517578,43.79999923706055 138.8000030517578,43.79999923706055 C138.8000030517578,43.79999923706055 118.80000305175781,0 118.80000305175781,0 C118.80000305175781,0 8.399999618530273,6.900000095367432 8.399999618530273,6.900000095367432 C8.399999618530273,6.900000095367432 0,54.599998474121094 0,54.599998474121094z"></path></g></g><g transform="matrix(1,0,0,1,476.41900634765625,316.5904541015625)" opacity="1" style="display: block;"><g opacity="1" transform="matrix(1,0,0,1,0,0)"><path fill="rgb(255,118,133)" fill-opacity="1" d=" M130.68099975585938,4.10699987411499 C130.68099975585938,4.10699987411499 96.83100128173828,-0.18000000715255737 65.28099822998047,0.10700000077486038 C38.46699905395508,0.35100001096725464 2.38100004196167,6.706999778747559 0.48100000619888306,8.607000350952148 C-7.019000053405762,16.406999588012695 -2.2190001010894775,80.40699768066406 1.9809999465942383,92.70700073242188 C6.181000232696533,105.00700378417969 25.680999755859375,136.90699768066406 22.08099937438965,157.70700073242188 C18.481000900268555,178.5070037841797 10.980999946594238,207.5070037841797 10.980999946594238,207.5070037841797 C10.980999946594238,207.5070037841797 36.38100051879883,222.0070037841797 68.48100280761719,221.8070068359375 C87.78099822998047,221.70700073242188 114.38099670410156,217.8070068359375 130.9810028076172,205.60699462890625 C130.9810028076172,205.60699462890625 121.28099822998047,179.8070068359375 122.28099822998047,159.5070037841797 C123.28099822998047,139.20700073242188 133.68099975585938,104.60700225830078 139.18099975585938,92.10700225830078 C144.781005859375,79.70700073242188 140.88099670410156,6.10699987411499 130.68099975585938,4.10699987411499z"></path></g></g><g transform="matrix(1,0,0,1,522.2999877929688,272.8974304199219)" opacity="1" style="display: block;"><g opacity="1" transform="matrix(1,0,0,1,0,0)"><path fill="rgb(247,164,145)" fill-opacity="1" d=" M32.79999923706055,5.400000095367432 C32.79999923706055,5.400000095367432 34.900001525878906,35.099998474121094 36.79999923706055,44.599998474121094 C38.79999923706055,54.400001525878906 41.400001525878906,99.4000015258789 21,104.69999694824219 C0.699999988079071,110 5.699999809265137,53.900001525878906 5.199999809265137,43.900001525878906 C4.699999809265137,34 0,0 0,0 C0,0 32.79999923706055,5.400000095367432 32.79999923706055,5.400000095367432z"></path></g></g><g clip-path="url(#__lottie_element_1749)" transform="matrix(1,0,0,1,0,-452.90252685546875)" opacity="1" style="display: block;"><g transform="matrix(1,0,0,1,522.2999877929688,725.7999877929688)" opacity="1" style="display: block;"><g opacity="1" transform="matrix(1,0,0,1,0,0)"><path fill="rgb(244,116,88)" fill-opacity="1" d=" M0,0 C0,0 0.8999999761581421,6.900000095367432 2,15.300000190734863 C9.600000381469727,21.100000381469727 20,22.5 32,15.399999618530273 C32.5,15.100000381469727 33,14.800000190734863 33.5,14.399999618530273 C33.099998474121094,9.100000381469727 32.79999923706055,5.300000190734863 32.79999923706055,5.300000190734863 C32.79999923706055,5.300000190734863 0,0 0,0z"></path></g></g><g transform="matrix(1,0,0,1,507.4939880371094,661.0679931640625)" opacity="1" style="display: block;"><g opacity="1" transform="matrix(1,0,0,1,0,0)"><path fill="rgb(247,164,145)" fill-opacity="1" d=" M38.10599899291992,0.5320000052452087 C38.10599899291992,0.5320000052452087 50.10599899291992,3.631999969482422 57.20600128173828,15.331999778747559 C64.30599975585938,27.031999588012695 68.30599975585938,60.731998443603516 43.20600128173828,75.63200378417969 C18.006000518798828,90.53199768066406 -0.39399999380111694,67.73200225830078 0.006000000052154064,46.03200149536133 C0.4059999883174896,24.43199920654297 6.00600004196167,-4.26800012588501 38.10599899291992,0.5320000052452087z"></path></g></g><g transform="matrix(1,0,0,1,501.0639953613281,688.3590087890625)" opacity="1" style="display: block;"><g opacity="1" transform="matrix(1,0,0,1,0,0)"><path fill="rgb(247,164,145)" fill-opacity="1" d=" M1.0360000133514404,11.840999603271484 C2.936000108718872,17.141000747680664 7.035999774932861,20.541000366210938 10.13599967956543,19.340999603271484 C13.236000061035156,18.240999221801758 14.13599967956543,13.041000366210938 12.236000061035156,7.741000175476074 C10.336000442504883,2.440999984741211 6.236000061035156,-0.9589999914169312 3.135999917984009,0.2409999966621399 C0.035999998450279236,1.340999960899353 -0.9639999866485596,6.540999889373779 1.0360000133514404,11.840999603271484z"></path></g></g><g transform="matrix(1,0,0,1,563.2100219726562,698.5230102539062)" opacity="1" style="display: block;"><g opacity="1" transform="matrix(1,0,0,1,0,0)"><path fill="rgb(247,164,145)" fill-opacity="1" d=" M0.8899999856948853,7.9770002365112305 C-1.1100000143051147,13.57699966430664 0.38999998569488525,19.177000045776367 4.090000152587891,20.476999282836914 C7.889999866485596,21.777000427246094 12.489999771118164,18.37700080871582 14.489999771118164,12.777000427246094 C16.489999771118164,7.177000045776367 14.989999771118164,1.5770000219345093 11.289999961853027,0.2770000100135803 C7.489999771118164,-1.0230000019073486 2.890000104904175,2.377000093460083 0.8899999856948853,7.9770002365112305z"></path></g></g></g><g transform="matrix(0.9889059662818909,-0.14854298532009125,0.14854298532009125,0.9889059662818909,537.08251953125,207.09402465820312)" opacity="1" style="display: block;"><g opacity="1" transform="matrix(1,0,0,1,0,0)"><path fill="rgb(51,51,67)" fill-opacity="1" d=" M0,0 C0,0 3.7751309871673584,18.42586326599121 17.225500106811523,22.1959171295166 C29.743144989013672,25.53516387939453 31.23410987854004,46.802852630615234 31.23410987854004,46.802852630615234 C31.23410987854004,46.802852630615234 33.33013153076172,18.16826820373535 21.65560531616211,8.092938423156738 C10.017539024353027,-1.6826930046081543 0,0 0,0z"></path></g></g><g transform="matrix(1,0,0,1,367.4950256347656,574.699462890625)" opacity="1" style="display: block;"><g opacity="1" transform="matrix(1,0,0,1,0,0)"><path fill="rgb(247,164,145)" fill-opacity="1" d=" M48.305999755859375,16.5 C48.305999755859375,16.5 39.305999755859375,9.100000381469727 28.606000900268555,6.300000190734863 C17.9060001373291,3.5 18.106000900268555,11.300000190734863 15.406000137329102,23.299999237060547 C12.706000328063965,35.400001525878906 8.005999565124512,43.29999923706055 2.2060000896453857,55 C-3.5940001010894775,66.69999694824219 3.50600004196167,93.30000305175781 6.806000232696533,93.69999694824219 C14.706000328063965,94.5 18.4060001373291,77.5999984741211 25.9060001373291,63.099998474121094 C33.40599822998047,48.599998474121094 54.305999755859375,43.79999923706055 60.40599822998047,43.099998474121094 C61.50600051879883,43 88.70600128173828,38.70000076293945 125.10600280761719,39 C117.50599670410156,24.5 106.40599822998047,12.600000381469727 95.10600280761719,0 C67.40599822998047,9.600000381469727 48.305999755859375,16.5 48.305999755859375,16.5z"></path></g></g><g transform="matrix(1,0,0,1,468.801025390625,526.1844482421875)" opacity="1" style="display: block;"><g opacity="1" transform="matrix(1,0,0,1,0,0)"><path fill="rgb(177,177,222)" fill-opacity="1" d=" M267.70001220703125,26.014999389648438 C264,7.215000152587891 248.3000030517578,-0.38499999046325684 230.10000610351562,0.014999999664723873 C188.1999969482422,1.1150000095367432 70.19999694824219,28.114999771118164 0,50.1150016784668 C4.199999809265137,65.21499633789062 1,75.11499786376953 6,90.71499633789062 C80.4000015258789,86.71499633789062 220,75.11499786376953 260.3999938964844,51.915000915527344 C266.70001220703125,48.314998626708984 269.5,35.1150016784668 267.70001220703125,26.014999389648438z"></path></g></g><g transform="matrix(1,0,0,1,589.698974609375,576.8994140625)" opacity="1" style="display: block;"><g opacity="1" transform="matrix(1,0,0,1,0,0)"><path fill="rgb(247,164,145)" fill-opacity="1" d=" M98,57.599998474121094 C92.69999694824219,45.599998474121094 87.4000015258789,37.79999923706055 85.19999694824219,25.600000381469727 C82.5999984741211,11.199999809265137 83.80000305175781,3.0999999046325684 66.19999694824219,10 C56.099998474121094,13.899999618530273 44.79999923706055,14 34.79999923706055,9.800000190734863 C28.200000762939453,7.099999904632568 20,3.799999952316284 10.699999809265137,0 C4.699999809265137,12.600000381469727 1,25.899999618530273 0,40 C22,42.29999923706055 38,44.5 38.79999923706055,44.599998474121094 C42.29999923706055,45 66.19999694824219,50 73,64.80000305175781 C79.80000305175781,79.5999984741211 82.9000015258789,98 90.5999984741211,96.19999694824219 C95,95.19999694824219 103.30000305175781,69.5 98,57.599998474121094z"></path></g></g><g transform="matrix(1,0,0,1,359.15899658203125,519.6504516601562)" opacity="1" style="display: block;"><g opacity="1" transform="matrix(1,0,0,1,0,0)"><path fill="rgb(214,214,237)" fill-opacity="1" d=" M50.340999603271484,0.04899999871850014 C33.840999603271484,-0.45100000500679016 5.440999984741211,2.6489999294281006 1.1410000324249268,21.249000549316406 C-0.9589999914169312,30.249000549316406 -0.1589999943971634,42.94900131225586 3.5409998893737793,51.44900131225586 C8.140999794006348,62.04899978637695 18.641000747680664,67.8489990234375 29.141000747680664,72.3489990234375 C49.14099884033203,80.8489990234375 172.64100646972656,93.9489974975586 236.34100341796875,100.4489974975586 C243.84100341796875,86.8489990234375 250.04100036621094,71.7490005493164 249.64100646972656,58.44900131225586 C188.14100646972656,33.749000549316406 81.94100189208984,0.8489999771118164 50.340999603271484,0.04899999871850014z"></path></g></g><g clip-path="url(#__lottie_element_1692)" transform="matrix(1,0,0,1,0,-432)" opacity="1" style="display: block;"><g transform="matrix(1,0,0,1,220.55101013183594,826.2501220703125)" opacity="1" style="display: block;"><g opacity="1" transform="matrix(1,0,0,1,0,0)"><path fill="rgb(255,118,133)" fill-opacity="1" d=" M10.199999809265137,5.099999904632568 C10.199999809265137,7.900000095367432 7.900000095367432,10.199999809265137 5.099999904632568,10.199999809265137 C2.299999952316284,10.199999809265137 0,7.900000095367432 0,5.099999904632568 C0,2.299999952316284 2.299999952316284,0 5.099999904632568,0 C7.900000095367432,0 10.199999809265137,2.299999952316284 10.199999809265137,5.099999904632568z"></path></g></g><g transform="matrix(1,0,0,1,196.46286010742188,824.4849243164062)" opacity="1" style="display: block;"><g opacity="1" transform="matrix(1,0,0,1,0,0)"><path fill="rgb(255,118,133)" fill-opacity="1" d=" M8.600000381469727,4.300000190734863 C8.600000381469727,6.699999809265137 6.699999809265137,8.600000381469727 4.300000190734863,8.600000381469727 C1.899999976158142,8.600000381469727 0,6.699999809265137 0,4.300000190734863 C0,1.899999976158142 1.899999976158142,0 4.300000190734863,0 C6.699999809265137,0 8.600000381469727,1.899999976158142 8.600000381469727,4.300000190734863z"></path></g></g><g transform="matrix(1,0,0,1,532.5,1074)" opacity="1" style="display: block;"><g opacity="1" transform="matrix(1,0,0,1,0,0)"><path stroke-linecap="butt" stroke-linejoin="miter" fill-opacity="0" stroke-miterlimit="4" stroke="rgb(255,119,134)" stroke-opacity="1" stroke-width="2" d=" M-325.75,-277.25 C-337.8349914550781,-240.99600219726562 -329.2669982910156,-213.08999633789062 -322.1730041503906,-204.04600524902344 C-319,-200 -314.8139953613281,-203.43600463867188 -314.75,-203.5 C-299,-221.75 -311.25,-278.25 -311.5,-278.25 C-312.25,-280 -319.625,-295.6239929199219 -325.75,-277.25z"></path></g></g><g transform="matrix(-0.3000589609146118,-0.643478512763977,0.643478512763977,-0.3000589609146118,208.27450561523438,821.7573852539062)" opacity="1" style="display: block;"><g opacity="1" transform="matrix(1,0,0,1,0,0)"><path fill="rgb(255,118,133)" fill-opacity="1" d=" M10.199999809265137,5.099999904632568 C10.199999809265137,7.900000095367432 7.900000095367432,10.199999809265137 5.099999904632568,10.199999809265137 C2.299999952316284,10.199999809265137 0,7.900000095367432 0,5.099999904632568 C0,2.299999952316284 2.299999952316284,0 5.099999904632568,0 C7.900000095367432,0 10.199999809265137,2.299999952316284 10.199999809265137,5.099999904632568z"></path></g></g><g transform="matrix(-0.4226182699203491,-0.9063078165054321,0.9063078165054321,-0.4226182699203491,300.2620544433594,436.2980651855469)" opacity="1" style="display: block;"><g opacity="1" transform="matrix(1,0,0,1,0,0)"><path stroke-linecap="butt" stroke-linejoin="miter" fill-opacity="0" stroke-miterlimit="4" stroke="rgb(255,119,134)" stroke-opacity="1" stroke-width="2" d=" M-325.75,-277.25 C-334.5429992675781,-247.8679962158203 -329.2669982910156,-213.08999633789062 -322.1730041503906,-204.04600524902344 C-319,-200 -316.4079895019531,-201.27000427246094 -313.11199951171875,-207.01199340820312 C-300.3179931640625,-243.77099609375 -311.25,-278.25 -311.5,-278.25 C-312.25,-280 -319.625,-295.6239929199219 -325.75,-277.25z"></path></g></g><g transform="matrix(0.3333247900009155,-0.6268927454948425,0.6268927454948425,0.3333247900009155,236.8274688720703,834.74853515625)" opacity="1" style="display: block;"><g opacity="1" transform="matrix(1,0,0,1,0,0)"><path fill="rgb(255,118,133)" fill-opacity="1" d=" M10.199999809265137,5.099999904632568 C10.199999809265137,7.900000095367432 7.900000095367432,10.199999809265137 5.099999904632568,10.199999809265137 C2.299999952316284,10.199999809265137 0,7.900000095367432 0,5.099999904632568 C0,2.299999952316284 2.299999952316284,0 5.099999904632568,0 C7.900000095367432,0 10.199999809265137,2.299999952316284 10.199999809265137,5.099999904632568z"></path></g></g><g transform="matrix(0.4694715738296509,-0.882947564125061,0.882947564125061,0.4694715738296509,578.591064453125,662.9559326171875)" opacity="1" style="display: block;"><g opacity="1" transform="matrix(1,0,0,1,0,0)"><path stroke-linecap="butt" stroke-linejoin="miter" fill-opacity="0" stroke-miterlimit="4" stroke="rgb(255,119,134)" stroke-opacity="1" stroke-width="2" d=" M-325.75,-277.25 C-334.5429992675781,-247.8679962158203 -329.2669982910156,-213.08999633789062 -322.1730041503906,-204.04600524902344 C-319,-200 -316.4079895019531,-201.27000427246094 -313.11199951171875,-207.01199340820312 C-300.3179931640625,-243.77099609375 -311.25,-278.25 -311.5,-278.25 C-312.25,-280 -319.625,-295.6239929199219 -325.75,-277.25z"></path></g></g><g transform="matrix(1,0,0,1,206.70001220703125,822.2999877929688)" opacity="1" style="display: block;"><g opacity="1" transform="matrix(1,0,0,1,0,0)"></g><g opacity="1" transform="matrix(1,0,0,1,0,0)"><path fill="rgb(255,118,133)" fill-opacity="1" d=" M13.800000190734863,6.900000095367432 C13.800000190734863,10.699999809265137 10.699999809265137,13.800000190734863 6.900000095367432,13.800000190734863 C3.0999999046325684,13.800000190734863 0,10.699999809265137 0,6.900000095367432 C0,3.0999999046325684 3.0999999046325684,0 6.900000095367432,0 C10.800000190734863,0 13.800000190734863,3.0999999046325684 13.800000190734863,6.900000095367432z"></path></g></g></g><g transform="matrix(1,0,0,1,532.5,642)" opacity="1" style="display: block;"><g opacity="1" transform="matrix(1,0,0,1,0,0)"><path stroke-linecap="butt" stroke-linejoin="miter" fill-opacity="0" stroke-miterlimit="4" stroke="rgb(255,119,134)" stroke-opacity="1" stroke-width="4" d=" M159.49099731445312,-482.7640075683594 C160.03399658203125,-482.37200927734375 160.375,-482.125 160.375,-482.125 C160.375,-482.125 156.625,-471.125 156.625,-471.125 C156.625,-471.125 165.5,-465.5 165.5,-465.5 C165.5,-465.5 161.875,-457.125 161.875,-457.125"></path></g></g><g transform="matrix(1,0,0,1,532.5,642)" opacity="1" style="display: block;"><g opacity="1" transform="matrix(1,0,0,1,0,0)"><path stroke-linecap="butt" stroke-linejoin="miter" fill-opacity="0" stroke-miterlimit="4" stroke="rgb(130,130,168)" stroke-opacity="1" stroke-width="4" d=" M-215.58599853515625,-433.21099853515625 C-213.88800048828125,-431.51300048828125 -211.5,-429.125 -211.5,-429.125 C-211.5,-429.125 -205.25,-434.375 -205.25,-434.375 C-205.25,-434.375 -199.125,-428 -199.125,-428 C-199.125,-428 -192.75,-432.625 -192.75,-432.625 C-192.75,-432.625 -186.5,-428.25 -186.5,-428.25"></path></g></g><g transform="matrix(1,0,0,1,532.5,642)" opacity="1" style="display: block;"><g opacity="1" transform="matrix(1,0,0,1,0,0)"><path stroke-linecap="butt" stroke-linejoin="miter" fill-opacity="0" stroke-miterlimit="4" stroke="rgb(130,130,168)" stroke-opacity="1" stroke-width="4" d=" M-300.7669982910156,-340.24798583984375 C-300.93701171875,-337.6990051269531 -301.125,-334.875 -301.125,-334.875 C-301.125,-334.875 -292.5,-332.75 -292.5,-332.75 C-292.5,-332.75 -292.25,-326.5 -292.25,-326.5"></path></g></g><g transform="matrix(-0.1736481785774231,0.9848077297210693,-0.9848077297210693,-0.1736481785774231,-160.31642150878906,718.4510498046875)" opacity="1" style="display: block;"><g opacity="1" transform="matrix(1,0,0,1,0,0)"><path stroke-linecap="butt" stroke-linejoin="miter" fill-opacity="0" stroke-miterlimit="4" stroke="rgb(177,177,222)" stroke-opacity="1" stroke-width="4" d=" M-300.7349853515625,-340.23699951171875 C-300.9330139160156,-337.5190124511719 -301.125,-334.875 -301.125,-334.875 C-301.125,-334.875 -292.5,-332.75 -292.5,-332.75 C-292.5,-332.75 -291.0050048828125,-323.03900146484375 -291.0050048828125,-323.03900146484375"></path></g></g><g transform="matrix(1,0,0,1,532.5,642)" opacity="1" style="display: block;"><g opacity="1" transform="matrix(1,0,0,1,0,0)"><path stroke-linecap="butt" stroke-linejoin="miter" fill-opacity="0" stroke-miterlimit="4" stroke="rgb(255,119,134)" stroke-opacity="1" stroke-width="4" d=" M297.3169860839844,-97.1989974975586 C298.14801025390625,-95.24800109863281 299,-93.25 299,-93.25 C299,-93.25 307.375,-94.25 307.375,-94.25 C307.375,-94.25 311.375,-87.75 311.375,-87.75"></path></g></g><g transform="matrix(1,0,0,1,532.5,642)" opacity="1" style="display: block;"><g opacity="1" transform="matrix(1,0,0,1,0,0)"><path stroke-linecap="butt" stroke-linejoin="miter" fill-opacity="0" stroke-miterlimit="4" stroke="rgb(255,119,134)" stroke-opacity="1" stroke-width="4" d=" M375.23199462890625,-262.9630126953125 C375.0920104980469,-262.4570007324219 375,-262.125 375,-262.125 C375,-262.125 383.25,-260 383.25,-260"></path></g></g><g transform="matrix(1,0,0,1,532.5,642)" opacity="1" style="display: block;"><g opacity="1" transform="matrix(1,0,0,1,0,0)"><path stroke-linecap="butt" stroke-linejoin="miter" fill-opacity="0" stroke-miterlimit="4" stroke="rgb(178,178,223)" stroke-opacity="1" stroke-width="4" d=" M280.62298583984375,-402.3489990234375 C281.54998779296875,-400.0150146484375 282.5,-397.625 282.5,-397.625 C282.5,-397.625 290.625,-399.625 290.625,-399.625 C290.625,-399.625 294.25,-393.5 294.25,-393.5"></path></g></g><g transform="matrix(1,0,0,1,532.5,642)" opacity="1" style="display: block;"><g opacity="1" transform="matrix(1,0,0,1,0,0)"><path stroke-linecap="round" stroke-linejoin="miter" fill-opacity="0" stroke-miterlimit="4" stroke="rgb(131,131,169)" stroke-opacity="1" stroke-width="9" d=" M93.37000274658203,-517.9080200195312 C95.72899627685547,-515.4650268554688 95.73500061035156,-511.47900390625 90.25,-505 C90.375,-504.875 76.5,-494.625 79.5,-491.625"></path></g></g><g transform="matrix(0.9333299994468689,0,0,0.9333299994468689,536.06689453125,603.03173828125)" opacity="0.6423750000000081" style="display: block;"><g opacity="1" transform="matrix(1,0,0,1,76,-472)"><path fill="rgb(130,130,168)" fill-opacity="1" d=" M0,-7.5 C-4.142000198364258,-7.5 -7.5,-4.142000198364258 -7.5,0 C-7.5,4.142000198364258 -4.142000198364258,7.5 0,7.5 C4.142000198364258,7.5 7.5,4.142000198364258 7.5,0 C7.5,-4.142000198364258 4.142000198364258,-7.5 0,-7.5z"></path></g></g></g></svg>