<svg xmlns="http://www.w3.org/2000/svg" xmlns:xlink="http://www.w3.org/1999/xlink" viewBox="0 0 512 512" width="512" height="512" preserveAspectRatio="xMidYMid slice" style="width: 100%; height: 100%; transform: translate3d(0px, 0px, 0px); content-visibility: visible;"><defs><clipPath id="__lottie_element_339"><rect width="512" height="512" x="0" y="0"></rect></clipPath></defs><g clip-path="url(#__lottie_element_339)"><g transform="matrix(1,0,0,1,5.5500030517578125,5.350006103515625)" opacity="1" style="display: block;"><g opacity="1" transform="matrix(1,0,0,1,250.25,250.25)"><path fill="rgb(225,247,255)" fill-opacity="1" d=" M250,0 C250,138.0709991455078 138.0709991455078,250 0,250 C-138.0709991455078,250 -250,138.0709991455078 -250,0 C-250,-138.0709991455078 -138.0709991455078,-250 0,-250 C138.0709991455078,-250 250,-138.0709991455078 250,0z"></path></g></g><g transform="matrix(1,0,0,1,32.00700378417969,70.20701599121094)" opacity="1" style="display: block;"><g opacity="1" transform="matrix(1,0,0,1,80.65599822998047,108.677001953125)"><path fill="rgb(247,226,139)" fill-opacity="1" d=" M-35.4379997253418,78.5459976196289 C-35.4379997253418,78.5459976196289 57.933998107910156,15.720000267028809 57.933998107910156,15.720000267028809 C38.4630012512207,-29.351999282836914 -2.308000087738037,-61.78300094604492 -27.584999084472656,-78.5459976196289 C-57.933998107910156,-17.72100067138672 -38.67599868774414,66.99099731445312 -35.4379997253418,78.5459976196289z"></path></g><g opacity="1" transform="matrix(1,0,0,1,26.660999298095703,110.82499694824219)"><path fill="rgb(255,212,40)" fill-opacity="1" d=" M0.7269999980926514,-84.60800170898438 C-26.410999298095703,-15.538999557495117 -4.139999866485596,91.66899871826172 -4.139999866485596,91.66899871826172 C-4.139999866485596,91.66899871826172 18.55699920654297,76.39800262451172 18.55699920654297,76.39800262451172 C15.319000244140625,64.84300231933594 -3.937999963760376,-19.868999481201172 26.410999298095703,-80.69400024414062 C21.31399917602539,-84.0739974975586 16.79199981689453,-86.87300109863281 13.262999534606934,-88.947998046875 C8.635000228881836,-91.66999816894531 2.690000057220459,-89.6050033569336 0.7269999980926514,-84.60800170898438z"></path></g><g opacity="1" transform="matrix(1,0,0,1,357.156005859375,100.28600311279297)"><path fill="rgb(247,226,139)" fill-opacity="1" d=" M-61.625,44.89899826049805 C-61.625,44.89899826049805 51.63800048828125,79.10700225830078 51.63800048828125,79.10700225830078 C61.625,31.035999298095703 46.172000885009766,-50.856998443603516 35.13199996948242,-79.10700225830078 C-24.67300033569336,-46.79600143432617 -57.630001068115234,33.58399963378906 -61.625,44.89899826049805z"></path></g><g opacity="1" transform="matrix(1,0,0,1,330.2330017089844,72.71700286865234)"><path fill="rgb(255,212,40)" fill-opacity="1" d=" M43.29199981689453,-69.50900268554688 C-18.62700080871582,-28.60700035095215 -62.05400085449219,71.91000366210938 -62.05400085449219,71.91000366210938 C-62.05400085449219,71.91000366210938 -34.702999114990234,72.46700286865234 -34.702999114990234,72.46700286865234 C-30.70800018310547,61.152000427246094 2.249000072479248,-19.22800064086914 62.05400085449219,-51.53900146484375 C59.827999114990234,-57.23400115966797 57.737998962402344,-62.12300109863281 56.04399871826172,-65.8499984741211 C53.821998596191406,-70.73799896240234 47.77199935913086,-72.46800231933594 43.29199981689453,-69.50900268554688z"></path></g><g opacity="1" transform="matrix(1,0,0,1,224.802001953125,253.26100158691406)"><path fill="rgb(247,226,139)" fill-opacity="1" d=" M211.58299255371094,63.71099853515625 C211.58299255371094,63.71099853515625 205.82000732421875,-6.730999946594238 205.82000732421875,-6.730999946594238 C205.33299255371094,-103.6719970703125 112.08799743652344,-182.13099670410156 -2.875999927520752,-182.13099670410156 C-118.14299774169922,-182.13099670410156 -211.58299255371094,-103.26200103759766 -211.58299255371094,-5.96999979019165 C-211.58299255371094,18.777999877929688 -205.5279998779297,42.32899856567383 -194.61099243164062,63.696998596191406 C-180.62899780273438,86.24199676513672 -168.95599365234375,108.23100280761719 -156.66900634765625,127.75299835205078 C-113.95899963378906,161.7830047607422 -59.86399841308594,182.13099670410156 -1.0099999904632568,182.13099670410156 C88.77899932861328,182.13099670410156 167.4980010986328,134.78799438476562 211.58299255371094,63.71099853515625z"></path></g><g opacity="1" transform="matrix(1,0,0,1,114.50599670410156,232.71600341796875)"><path fill="rgb(255,212,40)" fill-opacity="1" d=" M-62.89699935913086,89.08699798583984 C-63.30099868774414,88.39299774169922 -63.48400115966797,88.01699829101562 -63.48400115966797,88.01699829101562 C-77.03500366210938,64.59400177001953 -84.72200012207031,38.11600112915039 -84.72200012207031,10.043999671936035 C-84.72200012207031,-82.5469970703125 -1.6150000095367432,-158.07000732421875 102.66300201416016,-162.1909942626953 C99.68800354003906,-162.3090057373047 96.70099639892578,-162.38999938964844 93.69200134277344,-162.38999938964844 C-14.751999855041504,-162.38999938964844 -102.66300201416016,-85.18900299072266 -102.66300201416016,10.043999671936035 C-102.66300201416016,38.11600112915039 -94.97599792480469,64.59400177001953 -81.42500305175781,88.01699829101562 C-81.50700378417969,88.1520004272461 -81.58699798583984,88.29000091552734 -81.66899871826172,88.42500305175781 C-78.55999755859375,93.2229995727539 -75.2979965209961,97.91300201416016 -71.87699890136719,102.47699737548828 C-71.63700103759766,102.0469970703125 -71.38999938964844,101.6259994506836 -71.1500015258789,101.19599914550781 C-20.690000534057617,162.38999938964844 95.72699737548828,152.07400512695312 95.72699737548828,152.07400512695312 C-24.40399932861328,147.18299865722656 -58.25199890136719,97.06999969482422 -62.89699935913086,89.08699798583984z"></path></g><g opacity="1" transform="matrix(1,0,0,1,342.68701171875,371.89801025390625)"><path fill="rgb(255,212,40)" fill-opacity="1" d=" M15.104999542236328,-46.505001068115234 C15.104999542236328,-46.505001068115234 -33.2140007019043,-18.356000900268555 -33.2140007019043,-18.356000900268555 C-33.2140007019043,-18.356000900268555 -48.89500045776367,-8.505000114440918 -35.89500045776367,3.494999885559082 C-35.89500045776367,3.494999885559082 -42.89500045776367,16.4950008392334 -31.895000457763672,23.4950008392334 C-31.895000457763672,23.4950008392334 -34.89500045776367,31.4950008392334 -28.895000457763672,36.494998931884766 C-28.895000457763672,36.494998931884766 -28.149999618530273,46.505001068115234 -28.149999618530273,46.505001068115234 C-18.922000885009766,42.909000396728516 -9.96399974822998,38.77299880981445 -1.305999994277954,34.1510009765625 C-11.555000305175781,35.505001068115234 -21.763999938964844,36.1609992980957 -26.615999221801758,34.689998626708984 C-26.67099952697754,34.67300033569336 -26.729999542236328,34.65800094604492 -26.783000946044922,34.64099884033203 C-33.37699890136719,28.92300033569336 -29.895000457763672,22.4950008392334 -29.895000457763672,22.4950008392334 C-40.89500045776367,15.494999885559082 -33.89500045776367,3.494999885559082 -33.89500045776367,3.494999885559082 C-46.89500045776367,-7.505000114440918 -33.17100143432617,-15.036999702453613 -33.17100143432617,-15.036999702453613 C-33.17100143432617,-15.036999702453613 -33.069000244140625,-15.210000038146973 -33.069000244140625,-15.210000038146973 C-32.91999816894531,-15.258999824523926 -32.76599884033203,-15.307000160217285 -32.61399841308594,-15.354999542236328 C-15.795999526977539,-20.70599937438965 19.211999893188477,-21.07900047302246 19.211999893188477,-21.07900047302246 C19.211999893188477,-21.07900047302246 16.82900047302246,-41.165000915527344 16.82900047302246,-41.165000915527344 C16.82900047302246,-41.165000915527344 32.724998474121094,-16.433000564575195 32.724998474121094,-16.433000564575195 C32.724998474121094,-16.433000564575195 45.641998291015625,1.7009999752044678 45.641998291015625,1.7009999752044678 C46.731998443603516,0.746999979019165 47.821998596191406,-0.2070000022649765 48.89500045776367,-1.1790000200271606 C48.89500045776367,-1.1790000200271606 15.104999542236328,-46.505001068115234 15.104999542236328,-46.505001068115234z M23.033000946044922,19.312000274658203 C19.253999710083008,21.922000885009766 15.39799976348877,24.42799949645996 11.472000122070312,26.83099937438965 C15.39799976348877,24.42799949645996 19.253999710083008,21.922000885009766 23.033000946044922,19.312000274658203z"></path></g><g opacity="1" transform="matrix(1,0,0,1,221.83299255371094,270.2590026855469)"><path fill="rgb(109,89,3)" fill-opacity="1" d=" M2.553999900817871,15.77400016784668 C1.4290000200271606,16.424999237060547 -1.531999945640564,16.676000595092773 -2.6459999084472656,16.006000518798828 C-9.11400032043457,12.116000175476074 -30.281999588012695,-1.4279999732971191 -23.679000854492188,-8.362000465393066 C-15.916000366210938,-16.513999938964844 20.472000122070312,-16.676000595092773 24.062999725341797,-9.531000137329102 C24.062999725341797,-9.531000137329102 30.283000946044922,-0.2849999964237213 2.553999900817871,15.77400016784668z"></path></g><g opacity="1" transform="matrix(1,0,0,1,163.69500732421875,213.14100646972656)"><path fill="rgb(147,119,2)" fill-opacity="1" d=" M48.823001861572266,-7.073999881744385 C52.72999954223633,19.889999389648438 34.03900146484375,44.91600036621094 7.073999881744385,48.823001861572266 C-19.889999389648438,52.72999954223633 -44.91600036621094,34.03900146484375 -48.823001861572266,7.074999809265137 C-52.72999954223633,-19.888999938964844 -34.03799819946289,-44.915000915527344 -7.073999881744385,-48.823001861572266 C19.889999389648438,-52.72999954223633 44.91600036621094,-34.03799819946289 48.823001861572266,-7.073999881744385z"></path></g><g opacity="1" transform="matrix(1,0,0,1,164.11199951171875,218.51800537109375)"><path fill="rgb(255,255,255)" fill-opacity="1" d=" M48.823001861572266,-7.073999881744385 C52.72999954223633,19.889999389648438 34.03900146484375,44.91600036621094 7.073999881744385,48.823001861572266 C-19.889999389648438,52.72999954223633 -44.91600036621094,34.03900146484375 -48.823001861572266,7.074999809265137 C-52.72999954223633,-19.888999938964844 -34.03799819946289,-44.915000915527344 -7.073999881744385,-48.823001861572266 C19.889999389648438,-52.72999954223633 44.91600036621094,-34.03799819946289 48.823001861572266,-7.073999881744385z"></path></g><g opacity="1" transform="matrix(1,0,0,1,309.84600830078125,356.5400085449219)"><path fill="rgb(247,226,139)" fill-opacity="1" d=" M-0.05299999937415123,-0.1469999998807907 C-0.05299999937415123,-0.1469999998807907 -0.22699999809265137,0.1469999998807907 -0.22699999809265137,0.1469999998807907 C-0.07800000160932541,0.09799999743700027 0.07599999755620956,0.050999999046325684 0.22699999809265137,0.003000000026077032 C0.05299999937415123,-0.09000000357627869 -0.05299999937415123,-0.1469999998807907 -0.05299999937415123,-0.1469999998807907z"></path></g><g opacity="1" transform="matrix(1,0,0,1,315.9880065917969,406.5929870605469)"><path fill="rgb(247,226,139)" fill-opacity="1" d=" M0.039000000804662704,0.054999999701976776 C0.039000000804662704,0.054999999701976776 0.06400000303983688,0.020999999716877937 0.08399999886751175,-0.006000000052154064 C0.028999999165534973,-0.02199999988079071 -0.029999999329447746,-0.03799999877810478 -0.08399999886751175,-0.054999999701976776 C-0.041999999433755875,-0.017999999225139618 -0.004000000189989805,0.01899999938905239 0.039000000804662704,0.054999999701976776z"></path></g></g><g transform="matrix(1,0,0,1,232.47500610351562,366.04901123046875)" opacity="1" style="display: block;"><g opacity="1" transform="matrix(1,0,0,1,23.927000045776367,15.29699993133545)"><path fill="rgb(224,137,152)" fill-opacity="1" d=" M-23.677000045776367,15.045999526977539 C-23.677000045776367,15.045999526977539 1.940999984741211,-15.04699993133545 20.39900016784668,-9.192999839782715 C22.691999435424805,-8.46500015258789 23.677000045776367,-5.745999813079834 22.52400016784668,-3.634999990463257 C21.756999969482422,-2.2290000915527344 20.216999053955078,-1.4459999799728394 18.625,-1.628000020980835 C12.638999938964844,-2.311000108718872 -3.3340001106262207,-2.0260000228881836 -23.677000045776367,15.045999526977539z"></path></g></g><g transform="matrix(1,0,0,1,237.8909912109375,167.6790008544922)" opacity="1" style="display: block;"><g opacity="1" transform="matrix(1,0,0,1,110.87200164794922,142.38299560546875)"><path fill="rgb(44,60,73)" fill-opacity="1" d=" M60.731998443603516,-108.59200286865234 C18.163999557495117,-142.13299560546875 -43.53799819946289,-134.80499267578125 -77.08100128173828,-92.23400115966797 C-110.62200164794922,-49.665000915527344 -103.30599975585938,12.031000137329102 -60.73699951171875,45.57099914550781 C-44.95500183105469,58.00699996948242 -26.562999725341797,64.79900360107422 -7.927999973297119,66.29399871826172 C-7.927999973297119,66.29399871826172 1.6469999551773071,142.13299560546875 1.6469999551773071,142.13299560546875 C1.6469999551773071,142.13299560546875 37.00400161743164,137.9510040283203 37.00400161743164,137.9510040283203 C37.00400161743164,137.9510040283203 27.48699951171875,62.61399841308594 27.48699951171875,62.61399841308594 C46.4379997253418,57.099998474121094 63.935001373291016,45.91299819946289 77.0790023803711,29.23200035095215 C110.62200164794922,-13.33899974822998 103.31099700927734,-75.04299926757812 60.731998443603516,-108.59200286865234z"></path></g><g opacity="1" transform="matrix(1,0,0,1,110.2300033569336,112.03099822998047)"><path fill="rgb(255,255,255)" fill-opacity="1" d=" M61.084999084472656,48.130001068115234 C34.50299835205078,81.86599731445312 -14.394000053405762,87.66600036621094 -48.130001068115234,61.08399963378906 C-81.86599731445312,34.50299835205078 -87.66699981689453,-14.394000053405762 -61.084999084472656,-48.13100051879883 C-34.50400161743164,-81.86699676513672 14.394000053405762,-87.66600036621094 48.130001068115234,-61.084999084472656 C81.86599731445312,-34.50299835205078 87.66699981689453,14.394000053405762 61.084999084472656,48.130001068115234z"></path></g><g opacity="1" transform="matrix(1,0,0,1,130.48500061035156,271.2690124511719)"><path fill="rgb(123,121,119)" fill-opacity="1" d=" M-30.5939998626709,-42.13999938964844 C-30.5939998626709,-42.13999938964844 -19.31100082397461,48.65999984741211 -19.31100082397461,48.65999984741211 C-1.5779999494552612,41.525001525878906 15.145999908447266,32.41600036621094 30.5939998626709,21.604999542236328 C30.5939998626709,21.604999542236328 21.863000869750977,-48.659000396728516 21.863000869750977,-48.659000396728516 C21.863000869750977,-48.659000396728516 -30.5939998626709,-42.13999938964844 -30.5939998626709,-42.13999938964844z"></path></g></g><g transform="matrix(1,0,0,1,327.5500183105469,400.69000244140625)" opacity="1" style="display: block;"><g opacity="1" transform="matrix(1,0,0,1,46.51900100708008,38.91299819946289)"><path fill="rgb(247,226,139)" fill-opacity="1" d=" M17.45400047302246,-38.66299819946289 C17.45400047302246,-38.66299819946289 19.836999893188477,-18.577999114990234 19.836999893188477,-18.577999114990234 C19.836999893188477,-18.577999114990234 -15.17199993133545,-18.204999923706055 -31.989999771118164,-12.854000091552734 C-32.14099884033203,-12.805000305175781 -32.29499816894531,-12.758000373840332 -32.44300079345703,-12.708999633789062 C-32.44300079345703,-12.708999633789062 -32.54600143432617,-12.53499984741211 -32.54600143432617,-12.53499984741211 C-32.54600143432617,-12.53499984741211 -46.27000045776367,-5.002999782562256 -33.27000045776367,5.997000217437744 C-33.27000045776367,5.997000217437744 -40.27000045776367,17.996999740600586 -29.270000457763672,24.996999740600586 C-29.270000457763672,24.996999740600586 -32.75199890136719,31.423999786376953 -26.158000946044922,37.141998291015625 C-26.104000091552734,37.159000396728516 -26.04599952697754,37.17399978637695 -25.990999221801758,37.191001892089844 C-21.13800048828125,38.66299819946289 -10.925999641418457,38.00699996948242 -0.6740000247955322,36.6510009765625 C16.225000381469727,27.625999450683594 31.966999053955078,16.719999313354492 46.27000045776367,4.205999851226807 C46.27000045776367,4.205999851226807 33.349998474121094,-13.930999755859375 33.349998474121094,-13.930999755859375 C33.349998474121094,-13.930999755859375 17.45400047302246,-38.66299819946289 17.45400047302246,-38.66299819946289z"></path></g><g opacity="1" transform="matrix(1,0,0,1,28.069000244140625,42.055999755859375)"><path fill="rgb(229,189,21)" fill-opacity="1" d=" M-14.819000244140625,2.8540000915527344 C-14.819000244140625,2.8540000915527344 -14.770999908447266,2.8320000171661377 -14.677000045776367,2.7920000553131104 C-13.064000129699707,2.11299991607666 1.9509999752044678,-3.9809999465942383 15.180999755859375,-1.1460000276565552 C15.180999755859375,-1.1460000276565552 -1.5420000553131104,-1.8910000324249268 -15.180999755859375,3.9820001125335693 C-15.180999755859375,3.9820001125335693 -14.819000244140625,2.8540000915527344 -14.819000244140625,2.8540000915527344z"></path></g><g opacity="1" transform="matrix(1,0,0,1,32.069000244140625,61.055999755859375)"><path fill="rgb(229,189,21)" fill-opacity="1" d=" M-14.819000244140625,2.8540000915527344 C-14.819000244140625,2.8540000915527344 -14.770999908447266,2.8329999446868896 -14.677000045776367,2.7929999828338623 C-13.064000129699707,2.114000082015991 1.9509999752044678,-3.9809999465942383 15.180999755859375,-1.1460000276565552 C15.180999755859375,-1.1460000276565552 -1.5420000553131104,-1.8910000324249268 -15.180999755859375,3.9820001125335693 C-15.180999755859375,3.9820001125335693 -14.819000244140625,2.8540000915527344 -14.819000244140625,2.8540000915527344z"></path></g></g><g transform="matrix(1,0,0,1,176.83094787597656,272.03240966796875)" opacity="1" style="display: block;"><g opacity="1" transform="matrix(1,0,0,1,18.27400016784668,18.27400016784668)"><path fill="rgb(68,56,6)" fill-opacity="1" d=" M16.68899917602539,-2.4179999828338623 C18.024999618530273,6.798999786376953 11.635000228881836,15.352999687194824 2.4189999103546143,16.68899917602539 C-6.797999858856201,18.02400016784668 -15.352999687194824,11.635000228881836 -16.687999725341797,2.4179999828338623 C-18.02400016784668,-6.798999786376953 -11.63599967956543,-15.352999687194824 -2.4189999103546143,-16.687999725341797 C6.797999858856201,-18.02400016784668 15.354000091552734,-11.635000228881836 16.68899917602539,-2.4179999828338623z"></path></g><g opacity="1" transform="matrix(1,0,0,1,11.45300006866455,13.734000205993652)"><path fill="rgb(255,255,255)" fill-opacity="1" d=" M3.7290000915527344,-0.5410000085830688 C4.0269999504089355,1.5180000066757202 2.5999999046325684,3.430000066757202 0.5410000085830688,3.7290000915527344 C-1.5180000066757202,4.0269999504089355 -3.430000066757202,2.5999999046325684 -3.7290000915527344,0.5400000214576721 C-4.0269999504089355,-1.5190000534057617 -2.5999999046325684,-3.430999994277954 -0.5410000085830688,-3.7290000915527344 C1.5190000534057617,-4.0269999504089355 3.430999994277954,-2.5999999046325684 3.7290000915527344,-0.5410000085830688z"></path></g></g><g transform="matrix(1,0,0,1,298.7259521484375,239.6204071044922)" opacity="1" style="display: block;"><g opacity="1" transform="matrix(1,0,0,1,44.500999450683594,44.50199890136719)"><path fill="rgb(68,56,6)" fill-opacity="1" d=" M40.972999572753906,-5.936999797821045 C44.25199890136719,16.691999435424805 28.565000534057617,37.694000244140625 5.935999870300293,40.972999572753906 C-16.691999435424805,44.25199890136719 -37.694000244140625,28.56599998474121 -40.972999572753906,5.936999797821045 C-44.25199890136719,-16.691999435424805 -28.56599998474121,-37.694000244140625 -5.936999797821045,-40.972999572753906 C16.69099998474121,-44.25199890136719 37.694000244140625,-28.56599998474121 40.972999572753906,-5.936999797821045z"></path></g><g opacity="1" transform="matrix(1,0,0,1,30.31100082397461,26.42099952697754)"><path fill="rgb(255,255,255)" fill-opacity="1" d=" M8.5,-1.2319999933242798 C9.310999870300293,4.364999771118164 6.163000106811523,9.454999923706055 1.468999981880188,10.135000228881836 C-3.2249999046325684,10.8149995803833 -7.688000202178955,6.828999996185303 -8.49899959564209,1.2319999933242798 C-9.3100004196167,-4.364999771118164 -6.1620001792907715,-9.454000473022461 -1.468000054359436,-10.135000228881836 C3.2260000705718994,-10.8149995803833 7.689000129699707,-6.828999996185303 8.5,-1.2319999933242798z"></path></g></g></g></svg>